<?xml version="1.0" encoding="UTF-8"?><svg id="Art" xmlns="http://www.w3.org/2000/svg" viewBox="0 0 690 862.5"><defs><style>.cls-1{fill:#fff;}.cls-2{fill:#e02826;}</style></defs><g><path class="cls-2" d="M518.26,496.46c-3.13,.33-7.49,.8-12.38,1.32-4.88,.58-10.28,1.33-15.54,2-2.05,.31-4.07,.62-6.03,.92-.92,.14-1.83,.28-2.72,.41-2.05,.31-4.02,.61-5.83,.89-2.97,.48-5.56,.95-7.66,1.31-.1,.02-.21,.04-.3,.05-.07,.01-.13,.02-.19,.03-1.58,.27-2.85,.5-3.66,.64-.09,.02-.19,.05-.28,.07-3.81,.73-7.2,3.43-10.7,7.48-1.8,2.08-3.62,4.52-5.55,7.26-1.92,2.78-3.94,5.87-6.13,9.2-2.26,3.46-4.6,6.49-6.82,9.2-2.21,2.71-4.32,5.02-6.15,6.88-1.83,1.87-3.37,3.3-4.47,4.27-1.09,.97-1.72,1.49-1.72,1.49,0,0,.5-.12,1.4-.35,.9-.21,2.21-.51,3.83-.89,3.23-.73,7.67-1.81,12.56-2.87,4.9-1.02,10.22-2.24,15.21-3.19,1.4-.27,2.76-.53,4.08-.79,.2-.04,.4-.08,.6-.12,3.17-.62,6.08-1.2,8.46-1.61,1.08-.19,2.07-.36,2.91-.51,1.01-.18,1.94-.34,2.78-.48,.06-.01,.12-.02,.17-.03,1.7-.3,3.04-.53,3.85-.67,3.73-.69,7.07-3.13,10.69-7.15,1.81-1.98,3.69-4.38,5.74-6.99,2.07-2.66,4.29-5.53,6.73-8.66,5.09-6.57,10.65-11.37,14.92-14.68,3.97-3.09,6.82-4.67,7.2-4.88,.03-.02,.05-.02,.05-.02,0,0-.48,.04-1.35,.11-.87,.07-2.14,.16-3.7,.34Z"/><path class="cls-2" d="M385.79,521.78c-2.27,.63-4.66,1.3-7.1,1.97-.24,.07-.48,.13-.72,.2-2.35,.65-4.74,1.32-7.1,1.97-2.41,.7-4.78,1.39-7.05,2.05-.08,.02-.17,.05-.25,.07-2.38,.69-4.63,1.35-6.69,1.95-2.97,.9-5.57,1.69-7.64,2.32,0,0-.02,0-.02,0-.08,.02-.14,.04-.22,.07-1.5,.45-2.7,.82-3.47,1.05-.11,.03-.22,.08-.33,.12-3.62,1.21-6.61,4.24-9.59,8.62-3.07,4.52-6.11,10.53-9.77,17.62-3.8,7.31-8.05,13.24-11.36,17.32-3.32,4.07-5.69,6.34-5.69,6.34,0,0,1.88-.63,4.9-1.64,1.9-.64,4.26-1.43,6.9-2.31,1.79-.6,3.7-1.24,5.69-1.91,4.81-1.55,10.05-3.29,14.95-4.84,1.21-.38,2.4-.75,3.55-1.11,.6-.19,1.2-.38,1.8-.57,2.83-.89,5.41-1.7,7.55-2.37,1.06-.32,2.04-.62,2.86-.87,.94-.28,1.8-.55,2.6-.79,.04-.01,.07-.02,.11-.03,1.77-.54,3.15-.96,3.98-1.21,3.67-1.13,6.7-4.06,9.79-8.51,1.55-2.22,3.11-4.81,4.78-7.71,1.68-2.93,3.48-6.08,5.46-9.53,4.11-7.19,8.82-12.82,12.5-16.7,1.84-1.94,3.41-3.44,4.53-4.45,.91-.81,1.51-1.29,1.7-1.45,.05-.04,.08-.06,.08-.06,0,0-1.85,.44-4.85,1.25-3.01,.79-7.19,1.89-11.89,3.13Z"/><path class="cls-2" d="M642.34,498.99c-.79-.13-1.65-.29-2.59-.42-.55-.07-1.14-.15-1.74-.23-.41-.05-.83-.11-1.26-.17-2.11-.28-4.45-.58-6.93-.91-.58-.08-1.17-.15-1.76-.22-1.63-.2-3.31-.4-5.02-.58-.43-.05-.86-.09-1.29-.14-2.05-.22-4.11-.41-6.16-.6-.73-.07-1.46-.13-2.18-.19-1.96-.17-3.9-.32-5.79-.46-.48-.04-.96-.07-1.43-.1-2.4-.17-4.69-.31-6.79-.43-.1,0-.2-.01-.3-.02-.08,0-.16-.01-.25-.02-1.5-.09-2.91-.19-4.21-.25-1.37-.04-2.62-.08-3.73-.12-1.72-.05-3.1-.1-3.96-.12-.02,0-.05,0-.07,0-1.99-.05-3.98,.38-6.01,1.24-2.05,.87-4.15,2.26-6.34,3.94-4.38,3.41-9.14,8.12-14.66,13.94-2.86,2.98-5.7,5.57-8.34,7.79-2.64,2.27-5.1,4.2-7.2,5.72-4.2,3.06-6.99,4.58-6.99,4.58,0,0,2.03-.11,5.29-.29,.96-.05,2.03-.11,3.18-.18,.26-.01,.51-.03,.77-.04,.57-.03,1.16-.06,1.77-.1,1.07-.06,2.2-.12,3.37-.18,1.17-.03,2.37-.07,3.6-.1,1.67-.04,3.39-.09,5.13-.15,.18,0,.36-.01,.53-.02,3.23-.09,6.51-.17,9.65-.12,5.01,0,9.67-.03,13.18,.14,1.08,.03,2.07,.06,2.91,.09,.94,.03,1.8,.06,2.59,.08,.17,0,.34,0,.51,.02,1.63,.05,2.91,.09,3.7,.12,3.72,.24,7.46-1.53,11.83-4.66,2.19-1.6,4.52-3.41,7.1-5.49,2.62-2.13,5.44-4.43,8.52-6.94,.81-.65,1.62-1.27,2.44-1.88,.81-.58,1.62-1.13,2.42-1.66,1.61-1.06,3.2-2.03,4.74-2.9,3.09-1.76,6-3.16,8.5-4.25,4.99-2.05,8.33-2.87,8.33-2.87,0,0-1.59-.27-4.24-.71-.27-.05-.55-.09-.84-.14Z"/><path class="cls-2" d="M678.37,526.03c-3.58,2.1-7.02,3.85-10.15,5.28-1.57,.72-3.06,1.36-4.46,1.93-1.4,.58-2.73,1.15-3.93,1.61-4.51,1.77-7.47,2.55-7.83,2.65-.02,0-.04,0-.04,0,0,0,1.96,.4,5.11,1.05,1.15,.25,2.47,.5,3.89,.8,.53,.11,1.07,.23,1.63,.36,.38,.09,.77,.19,1.17,.29,1.74,.43,3.58,.88,5.51,1.36,1.12,.29,2.26,.56,3.42,.84,1.24,.32,2.48,.63,3.72,.97,.05,.02,.11,.03,.16,.04,2.45,.71,4.91,1.42,7.29,2.1,.95,.26,1.88,.52,2.8,.79,.05,.02,.1,.03,.15,.05,.89,.27,1.76,.54,2.6,.8v-26.94c-3.4,1.71-7.06,3.73-11.04,6.01Z"/><path class="cls-2" d="M55.78,632.71c-1.13,.29-2.45,.63-3.9,1.01-.15,.04-.3,.08-.46,.12-2.11,.55-4.47,1.16-7,1.77-3.97,.98-8.33,1.98-12.64,2.9-1.09,.24-2.18,.46-3.27,.69-1.28,.27-2.55,.52-3.8,.77-.68,.13-1.35,.27-2.03,.4-2.14,.42-4.19,.8-6.05,1.13-2.83,.5-5.31,.85-7.29,1.17-.01,0-.02,0-.03,0-.02,0-.04,0-.06,0-1.55,.24-2.79,.45-3.57,.55-1.81,.22-3.53,.94-5.27,2.09-.14,.09-.28,.21-.42,.31v34.8H0c3.19-.32,6.08-.67,8.46-1.01,1.18-.15,2.28-.27,3.18-.42,1.1-.17,2.11-.33,3.03-.48,.1-.02,.2-.03,.3-.05,1.79-.28,3.18-.5,4.04-.63,.13-.02,.27-.06,.4-.09,.87-.17,1.73-.4,2.56-.75,.96-.42,1.89-.96,2.82-1.6,1.85-1.29,3.66-3,5.49-5.07,1.83-2.06,3.65-4.59,5.57-7.36,1.91-2.8,3.92-5.83,6.04-9.24,2.2-3.5,4.46-6.62,6.61-9.33,2.14-2.76,4.17-5.12,5.93-7.03,3.52-3.79,5.97-5.93,5.97-5.93,0,0-.44,.12-1.23,.34-.8,.22-1.95,.55-3.39,.91Z"/><path class="cls-2" d="M170.89,594.71c-.43,.16-.87,.31-1.3,.47-2.58,.94-6.57,2.39-11.22,4.08-.53,.19-1.07,.39-1.62,.59-2.05,.75-4.21,1.52-6.41,2.31-.18,.06-.36,.13-.54,.19-4.55,1.63-9.26,3.31-13.6,4.84-.12,.04-.25,.09-.37,.13-2.41,.85-4.7,1.65-6.77,2.38-2.66,.92-5.01,1.73-6.93,2.39-.1,.04-.21,.07-.31,.11-.04,.02-.1,.03-.14,.05-1.55,.53-2.79,.96-3.57,1.22-7.28,2.48-11.64,12.38-19.06,26.5-3.85,7.3-8.34,13.15-11.89,17.16-3.54,3.96-6.1,6.14-6.13,6.17h0s.08-.02,.19-.05c.56-.16,2.42-.71,5.18-1.52,.1-.03,.22-.06,.33-.1,.99-.28,2.07-.61,3.24-.96,2.72-.83,5.88-1.81,9.26-2.85,.21-.07,.43-.14,.64-.2,1.4-.44,2.81-.88,4.21-1.33,.67-.21,1.33-.43,2-.64,2.86-.92,5.74-1.86,8.52-2.75,1.4-.47,2.77-.93,4.1-1.37,.9-.3,1.77-.59,2.63-.88,2.38-.8,4.57-1.53,6.43-2.15,1.07-.37,2.06-.71,2.9-.99,3.13-1.07,5.54-1.9,6.77-2.32,.09-.03,.18-.08,.28-.12,7.25-2.73,11.68-12.68,18.49-26.86,3.57-7.44,7.68-13.47,10.91-17.65,3.23-4.18,5.57-6.5,5.57-6.5,0,0-.42,.15-1.17,.43-.18,.07-.39,.14-.62,.22Z"/><path class="cls-2" d="M274.41,557.02c-1.54,.54-3.18,1.11-4.89,1.71-9.07,3.21-20.09,7.17-28.01,10.05-2.89,1.05-5.43,1.98-7.44,2.71-1.56,.57-2.81,1.02-3.6,1.31-.04,.01-.07,.03-.1,.04-7.25,2.74-11.5,12.78-18.24,27.15-7,14.92-16.4,24.21-16.42,24.24h0s26.27-9.67,41.27-15.19c1.43-.53,2.76-1.02,3.95-1.45,1.05-.38,2.02-.74,2.84-1.04,3.06-1.12,5.43-1.98,6.63-2.42,7.28-2.65,11.5-12.69,18.44-27.04,3.59-7.44,7.8-13.44,11.12-17.58,3.19-3.98,5.51-6.23,5.7-6.4,0,0,.04-.03,.04-.03,0,0-2.4,.84-6.19,2.17-1.5,.53-3.21,1.12-5.09,1.78Z"/><path class="cls-2" d="M124.58,441.26c-.31,2.78-.72,5.08-1.05,6.67-.31,1.5-.54,2.36-.56,2.46,0,0,0,.02,0,.02,0,0,.11-.15,.3-.4,.31-.42,.87-1.17,1.62-2.17,.5-.67,1.09-1.45,1.75-2.34,.63-.84,1.33-1.77,2.06-2.79,.24-.33,.47-.66,.71-1.01,.36-.52,.71-1.05,1.07-1.61,.93-1.43,1.95-2.94,2.98-4.53,.48-.73,.95-1.48,1.42-2.25,1.05-1.81,2.13-3.68,3.22-5.56,.4-.7,.8-1.39,1.21-2.09,.89-1.71,1.75-3.42,2.61-5.12,0-.02,.02-.04,.03-.06,.47-.93,.93-1.86,1.39-2.76,1.28-2.61,2.32-5.21,3.38-7.57,.88-1.93,1.56-3.77,2.17-5.42,.13-.36,.27-.73,.4-1.07,.4-1.08,.77-2.07,1.09-2.94,.03-.07,.06-.16,.08-.23,.66-1.7,1.13-3.25,1.52-4.53,.4-1.28,.71-2.29,.92-2.98,0-.03,.01-.06,.02-.09,.3-1.01,.5-2.04,.58-3.11,.09-1.1-.03-2.25-.2-3.42-.36-2.35-1.13-4.82-2.24-7.42-1.21-2.62-2.77-5.38-4.57-8.26-.46-.71-.93-1.44-1.4-2.18-.52-.73-1.05-1.48-1.59-2.25-1.09-1.51-2.24-3.06-3.44-4.63-2.4-3.25-4.8-6.34-6.69-9.1-1.85-2.76-3.69-5.23-5.01-7.29-.68-1.03-1.26-1.96-1.76-2.77-.53-.81-.99-1.51-1.37-2.09-.71-1.12-1.07-1.76-1.09-1.79,0,0,0,0,0,0,0,0,.01,.41,.03,1.15,0,.19,.01,.38,.02,.58,.03,.69,.07,1.56,.05,2.59-.13,2.69-.04,6.44-.5,10.63-.08,1.05-.17,2.13-.26,3.23-.1,1.1-.3,2.21-.44,3.33,0,.04-.01,.08-.02,.12-.11,.76-.21,1.53-.32,2.31-.18,1.35-.38,2.71-.66,4.05-.02,.1-.04,.21-.06,.31-.08,.4-.16,.8-.23,1.2-.14,.71-.28,1.43-.41,2.12-.17,.94-.36,1.85-.58,2.74-.04,.15-.07,.31-.11,.47-.52,2.08-1.02,4.06-1.47,5.86-.76,2.47-1.43,4.64-1.97,6.4-.03,.09-.06,.19-.08,.28-.29,1.01-.62,1.83-.87,2.48-.1,.26-.19,.5-.26,.7-.02,.05-.02,.1-.04,.14-.56,1.57-.67,3.29-.43,5.23,.17,1.96,.67,4.14,1.45,6.63,.86,2.61,1.77,5.36,2.75,8.34,1.03,3.1,2.24,6.61,3.19,10.43,1.02,3.98,1.71,7.99,1.84,11.56,.09,1.81,.12,3.55,.09,5.2-.01,.82-.04,1.62-.07,2.4-.04,.77-.13,1.48-.21,2.18Z"/><path class="cls-2" d="M82.56,468.6c.27-1.83,.49-3.78,.72-5.76,.23-2.05,.5-4.01,.79-5.87,.15-.91,.3-1.81,.45-2.7,.16-.87,.31-1.72,.43-2.58,.5-3.39,1.04-6.3,1.55-8.68,.46-2.42,.82-4.4,1.13-5.7,.29-1.31,.5-2.01,.5-2.02,0,0,0,0,0,0,0,0-.14,.14-.37,.39-.35,.37-.94,.99-1.73,1.82-.21,.22-.44,.46-.68,.72-.07,.07-.13,.13-.2,.21-.47,.48-.94,1.05-1.54,1.57-.05,.04-.1,.09-.14,.13-.32,.29-.65,.59-.98,.91-.15,.14-.3,.28-.45,.42-.1,.09-.19,.17-.29,.26-.51,.47-1.06,.98-1.6,1.49-.16,.15-.3,.28-.46,.43-.17,.15-.33,.3-.5,.46-.13,.12-.26,.25-.4,.37-.26,.24-.52,.49-.8,.73-.13,.11-.26,.22-.4,.32-.07,.05-.13,.11-.2,.16-.33,.26-.67,.54-1,.81-.73,.59-1.46,1.18-2.21,1.79-.67,.54-1.33,1.08-2.01,1.63-.02,.02-.04,.03-.06,.05-.21,.16-.41,.33-.62,.5-.23,.19-.46,.39-.7,.58-.39,.32-.79,.64-1.22,.94-.05,.04-.1,.07-.15,.11h0s0,0,0,0c-.95,.69-1.9,1.37-2.85,2.05-.02,.02-.05,.03-.07,.05-.5,.36-.98,.71-1.48,1.07-1.43,1.03-2.84,2.05-4.19,3.03-1.91,1.25-3.73,2.44-5.38,3.53-.1,.07-.2,.13-.3,.2-1.1,.71-2.13,1.39-3.08,2.02-1.04,.69-2,1.31-2.88,1.83l-.1,.06c-1.31,.79-2.36,1.42-3.02,1.81-.06,.04-.11,.08-.17,.12-6.17,3.95-8.27,14.28-13.02,29.41-1.26,3.91-2.76,7.52-4.3,10.73-.77,1.6-1.55,3.12-2.32,4.49-.78,1.36-1.54,2.61-2.27,3.74-2.89,4.52-5.11,7.11-5.11,7.11,0,0,1.95-.94,5.09-2.46,.79-.38,1.65-.8,2.58-1.24,.92-.44,1.9-.92,2.93-1.41,1.01-.52,2.07-1.07,3.16-1.63,1.13-.58,2.29-1.18,3.48-1.8,1.66-.86,3.37-1.75,5.1-2.64,.72-.37,1.44-.75,2.17-1.12,.98-.55,1.97-1.09,2.95-1.64,1.45-.8,2.89-1.6,4.3-2.39,1.06-.6,2.11-1.17,3.13-1.74,1.25-.69,2.46-1.37,3.61-2.03,.84-.5,1.63-.98,2.41-1.45,1.15-.69,2.23-1.34,3.21-1.93,1-.6,1.93-1.16,2.71-1.63,1.04-.63,1.98-1.2,2.83-1.71,.35-.21,.69-.42,1.01-.61,.38-.25,.73-.47,1.05-.68,.57-.38,1.06-.69,1.43-.93,1.72-1.12,3.15-2.66,4.37-4.56,.61-.95,1.17-2,1.68-3.13,.26-.57,.5-1.16,.74-1.77,.23-.63,.45-1.29,.66-1.96,.84-2.7,1.55-5.74,2.18-9.06,.32-1.66,.62-3.4,.91-5.2Z"/><path class="cls-2" d="M77.79,253.57s-.06,0-.06,0c0,0,.34,.19,.96,.52,.07,.04,.17,.09,.25,.14,.26,.14,.55,.29,.87,.49,.29,.2,.63,.42,.98,.65,.14,.1,.28,.19,.44,.29,.76,.5,1.62,1.06,2.57,1.69,.37,.25,.76,.5,1.16,.76,.72,.52,1.46,1.09,2.23,1.7,.63,.49,1.27,1,1.94,1.52,.07,.05,.13,.1,.19,.15,.39,.3,.79,.6,1.19,.91,.39,.32,.75,.69,1.13,1.03,.76,.7,1.53,1.4,2.31,2.12,1.63,1.36,3.02,3.03,4.49,4.56,1.52,1.5,2.78,3.2,4.04,4.76,.62,.79,1.27,1.53,1.83,2.29,.54,.79,1.05,1.54,1.55,2.27,.73,1.05,1.41,2.04,2.04,2.94,.56,.96,1.07,1.83,1.52,2.6,.71,1.2,1.27,2.15,1.63,2.76,.79,1.43,1.9,2.68,3.5,3.78,.79,.56,1.71,1.07,2.68,1.6,.94,.55,1.99,1.09,3.14,1.64,2.27,1.11,5.07,2.2,7.93,3.61,1.49,.72,3.04,1.46,4.65,2.24,.82,.41,1.66,.83,2.52,1.27,.84,.45,1.67,.93,2.53,1.42,7.22,4.07,12.75,9.55,16.3,13.96,1.75,2.21,3.09,4.14,3.98,5.51,.46,.69,.78,1.23,.98,1.61,.19,.36,.3,.56,.31,.57,0,0,0,0,0,0,0,0-.03-.59-.17-1.65-.02-.13-.04-.3-.06-.45-.02-.16-.04-.3-.07-.48-.14-.96-.31-2.16-.51-3.55-.12-.97-.28-2.03-.47-3.16-.16-.95-.35-1.97-.55-3.02-.28-1.45-.6-2.98-.95-4.57-.22-.99-.45-2.02-.69-3.05-.06-.27-.12-.54-.19-.82-.16-.56-.31-1.14-.46-1.71-.16-.58-.32-1.17-.48-1.76-.18-.67-.37-1.33-.55-2-.09-.33-.18-.65-.27-.98-.21-.74-.43-1.49-.67-2.23-.13-.38-.26-.77-.39-1.15-.36-1.05-.71-2.1-1.07-3.14-.01-.03-.02-.06-.03-.1-.26-.75-.53-1.48-.8-2.23-.24-.67-.47-1.35-.72-2.01-.72-1.75-1.42-3.45-2.11-5.09-.02-.05-.04-.09-.06-.14-.38-.91-.76-1.8-1.12-2.66-.76-1.53-1.48-2.97-2.14-4.32-.17-.34-.33-.67-.49-.99-.2-.4-.4-.8-.58-1.18-.29-.58-.57-1.13-.83-1.66-.3-.51-.58-.99-.83-1.43-1.93-3.27-3.37-5.82-4.21-7.07-.15-.22-.33-.43-.49-.64-1.21-1.59-2.72-2.97-4.52-4.13-.51-.33-1.04-.65-1.6-.95-.58-.28-1.19-.55-1.81-.8-1.25-.5-2.58-.95-3.99-1.34-1.41-.39-2.88-.73-4.43-1.03-1.6-.25-3.28-.44-5.01-.59-1.73-.15-3.52-.26-5.35-.33-.9-.05-1.87-.04-2.85-.01-.96,.03-1.95,.06-2.95,.09-2.06,.08-4.01,.13-5.84,.15-1.82,.08-3.61,.16-5.34,.23-1.67,.06-3.21,.1-4.62,.12-1.42,.08-2.76,.15-4,.21-2.41,.12-4.23,.09-5.55,.15-1.1,.06-1.78,.07-1.97,.07Z"/><path class="cls-2" d="M2.12,233.93c2.31-.02,4.59,.22,6.77,.35,2.15,.15,4.19,.26,6.05,.53,.02,0,.05,0,.07,0,2.75,.36,5.17,.59,7.07,.9,1.48,.26,2.67,.47,3.41,.6,.13,.02,.25,.02,.38,.04,1.62,.22,3.3,0,5.11-.51,1.95-.51,4.05-1.42,6.38-2.63,1.17-.61,2.39-1.29,3.69-2.04,1.31-.73,2.66-1.48,4.06-2.27,2.85-1.6,6.04-3.48,9.59-5.31,3.65-1.85,7.32-3.3,10.77-4.42,3.43-1.09,6.58-1.72,9.31-2.22,1.36-.24,2.6-.42,3.7-.57,.55-.07,1.06-.14,1.54-.18,.5-.01,.95-.02,1.37-.03,1.54-.02,2.45,.02,2.57,.02,0,0,.02,0,.02,0,0,0-.56-.25-1.57-.7-.17-.08-.38-.17-.57-.26-.13-.06-.25-.11-.38-.17-.28-.12-.56-.25-.88-.39-.19-.07-.4-.15-.6-.23-.25-.1-.51-.19-.78-.3-.29-.11-.59-.22-.91-.34-.04-.02-.1-.04-.14-.05-1.49-.57-3.23-1.22-5.13-1.95-.23-.09-.44-.17-.67-.26-.6-.22-1.22-.46-1.85-.7-.22-.08-.46-.16-.69-.25-.33-.12-.64-.24-.98-.35-.06-.02-.12-.04-.18-.06-.86-.28-1.74-.57-2.64-.87-.34-.11-.67-.22-1.01-.33-1.31-.43-2.65-.87-4.01-1.31-.19-.06-.39-.12-.58-.19-1.17-.39-2.35-.76-3.56-1.07-1.98-.55-3.95-1.09-5.9-1.63-.81-.22-1.63-.45-2.43-.67-1.8-.45-3.56-.84-5.25-1.22-.25-.06-.5-.11-.75-.17-.64-.14-1.26-.28-1.87-.42-1.23-.27-2.41-.53-3.52-.78-.72-.13-1.4-.25-2.06-.36-.38-.07-.75-.13-1.11-.19-1.21-.21-2.32-.4-3.26-.57-1.49-.25-2.82-.5-3.99-.67-.21-.03-.43-.07-.64-.09-.2-.02-.38-.05-.57-.07-1.04-.13-1.88-.23-2.47-.31-2.12-.26-4.27-.02-6.49,.65-2.23,.73-4.53,1.95-6.91,3.48-1.19,.77-2.4,1.62-3.63,2.56-1.23,.96-2.5,2.05-3.78,3.18-.72,.64-1.46,1.31-2.19,1.99v22.76H0c.51,.01,1.01,.02,1.52,.03,.2,0,.4,0,.6,0Z"/></g><g><path class="cls-1" d="M599.41,494.54c-.18,0-.36-.02-.55-.03,.08,0,.16,.01,.25,.02,.1,0,.2,.01,.3,.02Z"/><path class="cls-1" d="M467.8,503.37c-.07,.01-.13,.02-.19,.03,.17-.03,.33-.06,.5-.09-.1,.02-.21,.04-.3,.05Z"/><path class="cls-1" d="M326.29,577.61c-1.99,.67-3.9,1.31-5.69,1.91,8.05-2.68,16.11-5.31,24.19-7.86-1.16,.36-2.34,.74-3.55,1.11-4.9,1.55-10.14,3.29-14.95,4.84Z"/><path class="cls-1" d="M354.15,568.72c-2.15,.67-4.73,1.48-7.55,2.37,4.33-1.36,8.67-2.71,13.01-4.03-.79,.24-1.66,.5-2.6,.79-.82,.25-1.8,.55-2.86,.87Z"/><path class="cls-1" d="M636.75,498.18c.43,.06,.85,.11,1.26,.17-3.31-.48-6.62-.9-9.94-1.3,.59,.07,1.18,.15,1.76,.22,2.47,.32,4.81,.63,6.93,.91Z"/><path class="cls-1" d="M653.4,500.85c-3.4-.62-6.81-1.18-10.22-1.71,2.65,.44,4.24,.71,4.24,.71,0,0-3.34,.82-8.33,2.87-2.5,1.09-5.41,2.5-8.5,4.25-1.54,.88-3.13,1.85-4.74,2.9-.8,.53-1.61,1.08-2.42,1.66-.81,.6-1.62,1.23-2.44,1.88-3.08,2.51-5.9,4.8-8.52,6.94-2.58,2.09-4.91,3.9-7.1,5.49-4.37,3.13-8.11,4.9-11.83,4.66-.79-.02-2.06-.06-3.7-.12,19.2,.74,38.28,2.71,57.06,6.13,1.71,.31,3.4,.65,5.1,.98,.36-.09,3.32-.88,7.83-2.65,1.2-.46,2.53-1.03,3.93-1.61,1.4-.57,2.89-1.21,4.46-1.93,3.13-1.44,6.57-3.18,10.15-5.28,3.98-2.28,7.64-4.31,11.04-6.01v-10.87c-11.88-3.32-23.91-6.09-36.01-8.29Z"/><path class="cls-1" d="M537.35,531.23s2.79-1.53,6.99-4.58c2.1-1.52,4.55-3.45,7.2-5.72,2.64-2.22,5.48-4.81,8.34-7.79,5.53-5.82,10.29-10.52,14.66-13.94,2.19-1.69,4.28-3.07,6.34-3.94,2.03-.85,4.02-1.29,6.01-1.24-19.34-.57-38.67,0-57.81,1.52-1.94,.15-3.88,.33-5.81,.5-.38,.21-3.24,1.78-7.2,4.88-4.27,3.31-9.83,8.11-14.92,14.68-2.43,3.13-4.66,6-6.73,8.66-2.05,2.61-3.93,5.01-5.74,6.99-3.62,4.02-6.96,6.47-10.69,7.15-.81,.14-2.14,.37-3.85,.67,19.21-3.33,38.49-5.86,57.79-7.39,4.63-.37,9.26-.67,13.89-.92-1.15,.06-2.22,.12-3.18,.18-3.26,.18-5.29,.29-5.29,.29Z"/><path class="cls-1" d="M551.72,530.44c-1.17,.06-2.29,.12-3.37,.18-.61,.03-1.2,.07-1.77,.1,4.62-.24,9.25-.41,13.87-.53-1.74,.05-3.46,.1-5.13,.15-1.23,.03-2.44,.07-3.6,.1Z"/><path class="cls-1" d="M468.27,540.09c-2.38,.41-5.28,.98-8.46,1.61,4.71-.91,9.43-1.78,14.15-2.6-.85,.15-1.77,.31-2.78,.48-.84,.15-1.83,.32-2.91,.51Z"/><path class="cls-1" d="M439.92,545.79c-4.89,1.06-9.33,2.14-12.56,2.87-1.61,.37-2.92,.68-3.83,.89-.9,.22-1.4,.35-1.4,.35,0,0,.63-.52,1.72-1.49,1.09-.97,2.64-2.4,4.47-4.27,1.83-1.87,3.94-4.17,6.15-6.88,2.21-2.71,4.55-5.75,6.82-9.2,2.19-3.33,4.21-6.42,6.13-9.2,1.93-2.74,3.76-5.18,5.55-7.26,3.51-4.06,6.89-6.75,10.7-7.48-18.78,3.36-37.38,7.41-55.78,11.96-1.81,.45-3.62,.93-5.43,1.39-.2,.16-.8,.64-1.7,1.45-1.12,1.01-2.69,2.51-4.53,4.45-3.67,3.88-8.39,9.51-12.5,16.7-1.97,3.45-3.78,6.6-5.46,9.53-1.67,2.9-3.24,5.5-4.78,7.71-3.09,4.45-6.12,7.38-9.79,8.51-.83,.25-2.21,.67-3.98,1.21,18.88-5.74,37.83-11.04,56.89-15.76,14.15-3.5,28.36-6.68,42.61-9.45-1.32,.26-2.69,.52-4.08,.79-4.99,.95-10.31,2.17-15.21,3.19Z"/><path class="cls-1" d="M660.97,539.36c.93,.21,1.86,.43,2.79,.65-.39-.1-.79-.19-1.17-.29-.56-.13-1.1-.25-1.63-.36Z"/><path class="cls-1" d="M583.82,530.19c-3.5-.17-8.17-.14-13.18-.14-3.14-.05-6.42,.03-9.65,.12,9.46-.22,18.91-.16,28.33,.19-.8-.02-1.66-.05-2.59-.08-.84-.03-1.83-.06-2.91-.09Z"/><path class="cls-1" d="M44.43,635.61c2.53-.61,4.9-1.22,7-1.77-6.55,1.69-13.1,3.25-19.64,4.67,4.31-.92,8.66-1.91,12.64-2.9Z"/><path class="cls-1" d="M14.77,678.52c.07-.01,.14-.02,.21-.03-.1,.02-.2,.03-.3,.05h.09Z"/><path class="cls-1" d="M158.38,599.27c-2.68,.97-5.36,1.94-8.03,2.9,2.2-.79,4.36-1.57,6.41-2.31,.55-.2,1.09-.4,1.62-.59Z"/><path class="cls-1" d="M129.06,609.71c2.07-.72,4.36-1.53,6.77-2.38-4.57,1.61-9.13,3.2-13.7,4.77,1.92-.66,4.26-1.47,6.93-2.39Z"/><path class="cls-1" d="M9.35,642.67c1.98-.32,4.46-.67,7.29-1.17,1.87-.33,3.91-.71,6.05-1.13-4.45,.85-8.9,1.63-13.34,2.3Z"/><path class="cls-1" d="M274.41,557.02c1.88-.66,3.59-1.26,5.09-1.78-1.7,.59-3.39,1.19-5.09,1.78Z"/><path class="cls-1" d="M0,645.63c.14-.1,.28-.21,.42-.31,1.73-1.15,3.46-1.87,5.27-2.09,.78-.1,2.02-.31,3.57-.55,.02,0,.04,0,.06,0-3.11,.48-6.21,.9-9.31,1.28v1.68Z"/><path class="cls-1" d="M136.21,607.2c4.34-1.53,9.05-3.2,13.6-4.84-4.53,1.63-9.07,3.24-13.6,4.84Z"/><path class="cls-1" d="M51.89,633.72c1.45-.38,2.76-.72,3.9-1.01,1.44-.36,2.59-.7,3.39-.91,.8-.22,1.23-.34,1.23-.34,0,0-2.45,2.14-5.97,5.93-1.76,1.91-3.79,4.27-5.93,7.03-2.15,2.71-4.4,5.83-6.61,9.33-2.12,3.41-4.13,6.44-6.04,9.24-1.92,2.77-3.73,5.3-5.57,7.36-1.83,2.07-3.64,3.78-5.49,5.07-.93,.64-1.86,1.18-2.82,1.6-.83,.35-1.69,.59-2.56,.75,19.22-3.17,37.82-7.75,56.1-12.87,1.85-.52,3.69-1.05,5.52-1.58,.03-.02,2.59-2.21,6.13-6.17,3.54-4.01,8.04-9.85,11.89-17.16,7.43-14.12,11.78-24.03,19.06-26.5,.78-.27,2.02-.69,3.57-1.22,.04-.02,.1-.03,.14-.05-18.69,6.4-37.4,12.53-56.15,17.79-4.59,1.29-9.19,2.53-13.79,3.72Z"/><path class="cls-1" d="M171.51,594.49c.75-.27,1.17-.43,1.17-.43,0,0-2.34,2.31-5.57,6.5-3.23,4.17-7.34,10.2-10.91,17.65-6.81,14.18-11.25,24.13-18.49,26.86,17.77-6.15,35.38-12.53,52.9-18.96,1.7-.62,3.4-1.25,5.09-1.88,.02-.02,9.42-9.32,16.42-24.24,6.75-14.36,10.99-24.4,18.24-27.15-17.47,6.39-34.88,12.84-52.25,19.22-2.2,.81-4.4,1.61-6.6,2.42Z"/><path class="cls-1" d="M99.23,657.82c.21-.07,.43-.14,.64-.2-3.29,1.03-6.59,2.06-9.9,3.06,2.72-.83,5.88-1.81,9.26-2.85Z"/><path class="cls-1" d="M81.22,663.26c1.84-.53,3.68-1.07,5.51-1.62-.11,.03-.22,.07-.33,.1-2.76,.81-4.63,1.36-5.18,1.52Z"/><path class="cls-1" d="M285.65,553.1c-.18,.18-2.51,2.43-5.7,6.4-3.32,4.14-7.53,10.15-11.12,17.58-6.94,14.36-11.16,24.39-18.44,27.04-1.2,.44-3.57,1.3-6.63,2.42-.82,.3-1.79,.65-2.84,1.04-1.19,.44-2.52,.93-3.95,1.45,22.07-8.09,44.1-16.06,66.2-23.64,3.51-1.2,7.02-2.39,10.53-3.57-3.03,1.01-4.9,1.64-4.9,1.64,0,0,2.37-2.27,5.69-6.34,3.32-4.08,7.57-10.02,11.36-17.32,3.66-7.09,6.7-13.1,9.77-17.62,2.98-4.39,5.97-7.42,9.59-8.62-18.08,5.55-36.01,11.43-53.81,17.54-1.92,.66-3.84,1.33-5.76,2Z"/><path class="cls-1" d="M79.8,254.72c-.32-.21-.61-.35-.87-.49,.62,.37,1.23,.76,1.84,1.14-.35-.23-.68-.46-.98-.65Z"/><path class="cls-1" d="M2.12,233.93c-.2,0-.4,0-.6,0,4.47,.12,8.94,.43,13.41,.9-1.86-.27-3.9-.38-6.05-.53-2.17-.14-4.46-.38-6.77-.35Z"/><path class="cls-1" d="M83.79,257.35c1.15,.79,2.27,1.61,3.38,2.46-.77-.6-1.5-1.18-2.23-1.7-.4-.26-.78-.51-1.16-.76Z"/><path class="cls-1" d="M122.72,362.54c-.2,1.35-.42,2.7-.66,4.05,.28-1.33,.48-2.69,.66-4.05Z"/><path class="cls-1" d="M120.77,372.96c.23-.89,.41-1.81,.58-2.74,.14-.7,.27-1.41,.41-2.12-.32,1.63-.65,3.25-.99,4.87Z"/><path class="cls-1" d="M72.09,449.95s.04-.03,.06-.05c.68-.55,1.34-1.09,2.01-1.63l-2.07,1.68Z"/><path class="cls-1" d="M49.08,465.91l.1-.06c.88-.52,1.84-1.14,2.88-1.83-.98,.64-1.96,1.28-2.98,1.89Z"/><path class="cls-1" d="M81.75,215.21c-.1-.05-.2-.09-.3-.13,.14,.06,.26,.11,.38,.17l-.08-.04Z"/><path class="cls-1" d="M77.92,213.67l-3.77-1.43-1.14-.43c1.91,.72,3.64,1.38,5.13,1.95-.07-.03-.15-.06-.22-.09Z"/><path class="cls-1" d="M66.55,209.52l-.55-.18c.9,.29,1.78,.58,2.64,.87-.69-.23-1.39-.45-2.08-.69Z"/><path class="cls-1" d="M70.38,210.82c-.19-.07-.39-.13-.58-.21,.23,.08,.47,.16,.69,.25l-.11-.04Z"/><path class="cls-1" d="M129.41,441.71c-.24,.35-.48,.68-.71,1.01l.42-.57,.29-.44Z"/><path class="cls-1" d="M159.33,322.79l-.07-.45c.02,.17,.05,.32,.07,.48,0,0,0-.02,0-.02Z"/><path class="cls-1" d="M124.89,447.84c-.75,1-1.31,1.75-1.62,2.17,.28-.37,.56-.75,.84-1.12l.78-1.05Z"/><path class="cls-1" d="M154.18,297.81s-.02-.06-.03-.1c.09,.33,.18,.65,.27,.98-.08-.29-.16-.59-.24-.88Z"/><path class="cls-1" d="M158.1,314.4l-.37-1.79c.2,1.05,.39,2.07,.55,3.02l-.18-1.22Z"/><path class="cls-1" d="M156.38,306.07c-.09-.36-.19-.72-.28-1.08,.24,1.04,.47,2.06,.69,3.05l-.41-1.97Z"/><path class="cls-1" d="M138.1,427.75c-1.09,1.89-2.17,3.76-3.22,5.56-.47,.77-.95,1.51-1.42,2.25l.28-.43c.8-1.15,1.46-2.38,2.17-3.59l2.1-3.63c.03-.05,.06-.11,.09-.16Z"/><path class="cls-1" d="M149.29,403.66c.4-1.08,.77-2.07,1.09-2.94-.48,1.34-.98,2.68-1.49,4.01,.13-.36,.27-.73,.4-1.07Z"/><path class="cls-1" d="M132.93,300.58c-1.61-.78-3.16-1.52-4.65-2.24-2.86-1.41-5.67-2.5-7.93-3.61-1.15-.55-2.19-1.09-3.14-1.64-.97-.53-1.89-1.05-2.68-1.6-1.6-1.1-2.71-2.34-3.5-3.78-.35-.6-.92-1.56-1.63-2.76-.45-.77-.96-1.65-1.52-2.6-.63-.91-1.31-1.89-2.04-2.94-.49-.72-1.01-1.48-1.55-2.27-.56-.77-1.21-1.5-1.83-2.29-1.27-1.56-2.52-3.26-4.04-4.76-1.48-1.53-2.86-3.2-4.49-4.56-.78-.71-1.55-1.42-2.31-2.12-.38-.34-.74-.71-1.13-1.03-.4-.31-.79-.61-1.19-.91-.07-.05-.13-.1-.19-.15,1.6,1.3,3.15,2.65,4.65,4.06,6.02,5.64,11.23,12.17,15.52,19.38,4.3,7.21,7.68,15.07,10.13,23.31,.54,2.09,1.17,4.15,1.67,6.25l1.32,6.36,.94,6.46c.26,2.17,.39,4.35,.6,6.53,.11,1.64,.18,3.27,.22,4.92,.01,.03,.37,.66,1.09,1.79,.38,.58,.84,1.28,1.37,2.09,.5,.82,1.09,1.74,1.76,2.77,1.32,2.06,3.15,4.52,5.01,7.29,1.89,2.76,4.29,5.85,6.69,9.1,1.2,1.57,2.34,3.12,3.44,4.63,.54,.76,1.07,1.51,1.59,2.25,.48,.74,.94,1.47,1.4,2.18,1.81,2.88,3.37,5.64,4.57,8.26,1.1,2.6,1.88,5.07,2.24,7.42,.17,1.17,.29,2.32,.2,3.42-.08,1.07-.28,2.1-.58,3.11l1.1-3.56,2.04-8.11c1.18-5.45,2.27-10.93,2.94-16.48,1.44-11.08,1.84-22.31,1.09-33.54-.19-2.1-.34-4.2-.55-6.3,0-.02-.11-.21-.31-.57-.2-.38-.52-.92-.98-1.61-.9-1.37-2.24-3.3-3.98-5.51-3.55-4.41-9.08-9.88-16.3-13.96-.86-.49-1.69-.97-2.53-1.42-.86-.43-1.7-.85-2.52-1.27Z"/><path class="cls-1" d="M23,199.28s-.05,0-.07,0c.85,.11,1.7,.19,2.55,.31-1.04-.13-1.88-.23-2.47-.31Z"/><path class="cls-1" d="M5.97,205.96c1.23-.93,2.44-1.79,3.63-2.56,2.38-1.53,4.68-2.75,6.91-3.48,2.19-.66,4.33-.9,6.42-.65-7.58-.94-15.24-1.52-22.93-1.64v13.5c.74-.68,1.47-1.35,2.19-1.99,1.28-1.13,2.54-2.23,3.78-3.18Z"/><path class="cls-1" d="M60.95,458.18l-5.82,3.82c.1-.07,.2-.13,.3-.2,1.66-1.08,3.47-2.27,5.38-3.53,1.35-.98,2.76-2,4.19-3.03l-4.06,2.93Z"/><path class="cls-1" d="M60.4,207.51l-1.55-.51c-2.62-.77-5.26-1.5-7.92-2.2,1.95,.54,3.92,1.08,5.9,1.63,1.21,.32,2.39,.69,3.56,1.07Z"/><path class="cls-1" d="M33.93,200.98c.36,.06,.73,.13,1.11,.19-2.66-.51-5.33-.98-8.02-1.39-.11-.02-.22-.03-.34-.04,1.17,.17,2.5,.43,3.99,.67,.94,.16,2.06,.36,3.26,.57Z"/><path class="cls-1" d="M54.91,243.86c1.09,.37,2.2,.68,3.28,1.11l3.25,1.23,3.25,1.23c1.05,.42,2.25,.8,3.13,1.25l5.71,2.57c1.45,.73,2.87,1.52,4.27,2.33,.19,0,.86-.01,1.97-.07,1.31-.06,3.13-.03,5.55-.15,1.24-.07,2.58-.14,4-.21,1.41-.02,2.95-.05,4.62-.12,1.73-.08,3.52-.15,5.34-.23,1.83-.02,3.78-.07,5.84-.15,1.01-.03,1.99-.06,2.95-.09,.98-.02,1.94-.04,2.85,.01,1.83,.07,3.62,.18,5.35,.33,1.73,.15,3.41,.34,5.01,.59,1.54,.29,3.02,.63,4.43,1.03,1.41,.39,2.74,.84,3.99,1.34,.62,.25,1.23,.51,1.81,.8,.55,.3,1.09,.62,1.6,.95,1.8,1.17,3.31,2.54,4.52,4.13-5.4-8.27-11.78-15.98-19.06-22.79-8.58-8.05-18.36-14.84-28.82-20.11l-5.77-2.61c-.12,0-1.03-.05-2.57-.02-.41,.01-.87,.02-1.37,.03-.48,.04-.99,.11-1.54,.18-1.1,.14-2.35,.33-3.7,.57-2.72,.49-5.88,1.13-9.31,2.22-3.45,1.12-7.11,2.57-10.77,4.42-3.54,1.82-6.73,3.71-9.59,5.31-1.41,.78-2.76,1.54-4.06,2.27-1.29,.75-2.52,1.44-3.69,2.04-2.33,1.22-4.43,2.13-6.38,2.63-1.81,.5-3.49,.73-5.11,.51,7.54,1.35,15.04,3.18,22.47,5.35l6.57,2.16Z"/><path class="cls-1" d="M87.76,435.68l-.9,.94c-.28,.29-.56,.58-.83,.88,.79-.83,1.38-1.45,1.73-1.82Z"/><path class="cls-1" d="M26.54,519.63c-.93,.45-1.79,.86-2.58,1.24-3.14,1.51-5.09,2.46-5.09,2.46,0,0,2.22-2.59,5.11-7.11,.72-1.13,1.49-2.38,2.27-3.74,.78-1.37,1.55-2.89,2.32-4.49,1.54-3.21,3.04-6.82,4.3-10.73,4.75-15.12,6.86-25.46,13.02-29.41C31.22,476.72,15.78,484.77,0,492.14v39.75c4.44-1.92,8.87-3.9,13.27-5.92,4.45-2.06,8.87-4.17,13.27-6.33Z"/><path class="cls-1" d="M79.67,443.62c.16-.15,.31-.28,.46-.43l-.34,.32c-.21,.19-.42,.38-.62,.57,.17-.16,.33-.31,.5-.46Z"/><path class="cls-1" d="M68.53,496.51c-.85,.51-1.8,1.08-2.83,1.71-.78,.47-1.71,1.03-2.71,1.63-.98,.59-2.06,1.24-3.21,1.93,2.82-1.66,5.64-3.34,8.44-5.07,.11-.06,.21-.13,.32-.2Z"/><path class="cls-1" d="M77.58,445.5c-.09,.07-.17,.14-.26,.21l-.94,.76c.33-.27,.68-.55,1-.81,.07-.05,.13-.11,.2-.16Z"/><path class="cls-1" d="M66.55,454.13c.32-.23,.64-.46,.96-.69l-.93,.67-.04,.03Z"/><path class="cls-1" d="M69.4,452.08c-.63,.45-1.26,.91-1.89,1.36l1.89-1.36s0,0,0,0Z"/><path class="cls-1" d="M82.02,441.44c.15-.14,.3-.28,.45-.42-.09,.08-.18,.17-.27,.25l-.18,.17Z"/><path class="cls-1" d="M46.33,509.38c1.45-.8,2.89-1.6,4.3-2.39,1.06-.6,2.11-1.17,3.13-1.74-2.47,1.4-4.94,2.77-7.43,4.13Z"/><path class="cls-1" d="M83.6,439.99c.59-.52,1.07-1.1,1.54-1.57,.07-.07,.13-.14,.2-.21-.62,.65-1.24,1.29-1.88,1.91,.05-.04,.1-.09,.14-.13Z"/><path class="cls-1" d="M32.63,516.58c1.13-.58,2.29-1.18,3.48-1.8,1.66-.86,3.37-1.75,5.1-2.64-2.85,1.51-5.71,2.98-8.58,4.44Z"/><path class="cls-1" d="M72.01,494.28s0,0,0,0c-.48,.31-.96,.63-1.44,.94,.57-.38,1.06-.69,1.43-.93Z"/><path class="cls-1" d="M81.5,488.05l6.54-4.71,3.26-2.36c1.09-.76,2.15-1.7,3.22-2.54l6.41-5.21c1.08-.83,2.09-1.85,3.13-2.79l3.09-2.86c2.11-1.86,4.01-3.93,5.96-5.96l2.9-3.05c.96-1.02,1.83-2.12,2.75-3.19l2.71-3.22,1.35-1.61c.05-.06,.09-.11,.13-.17,.03-.1,.26-.96,.56-2.46,.33-1.59,.73-3.89,1.05-6.67,.07-.7,.16-1.41,.21-2.18,.03-.77,.06-1.57,.07-2.4,.03-1.65,0-3.39-.09-5.2-.12-3.58-.81-7.58-1.84-11.56-.95-3.82-2.16-7.33-3.19-10.43-.98-2.98-1.89-5.74-2.75-8.34-.78-2.49-1.28-4.67-1.45-6.63-.24-1.94-.13-3.66,.43-5.23-2.62,7.2-5.82,14.18-9.55,20.84l-1.66,2.87c-.56,.95-1.07,1.93-1.71,2.83l-3.64,5.52-3.95,5.29c-.33,.44-.65,.89-.99,1.32l-1.07,1.26-2.13,2.52c-.72,.83-1.39,1.71-2.15,2.5l-1.01,1.06s-.21,.71-.5,2.02c-.31,1.31-.67,3.28-1.13,5.7-.51,2.38-1.05,5.29-1.55,8.68-.11,.86-.27,1.71-.43,2.58-.15,.89-.3,1.79-.45,2.7-.29,1.85-.56,3.81-.79,5.87-.23,1.98-.45,3.93-.72,5.76-.29,1.8-.59,3.53-.91,5.2-.63,3.32-1.34,6.36-2.18,9.06-.21,.68-.43,1.33-.66,1.96-.24,.61-.48,1.2-.74,1.77-.52,1.13-1.07,2.18-1.68,3.13-1.22,1.9-2.65,3.43-4.36,4.55,.95-.62,1.9-1.25,2.85-1.86,2.21-1.46,4.43-2.88,6.63-4.36Z"/><path class="cls-1" d="M123.76,353.55c.33-3.02,.38-5.8,.43-8.12-.11,4.88-.48,9.76-1.12,14.62,0,.06-.02,.12-.03,.19,0-.04,.01-.08,.02-.12,.14-1.12,.34-2.23,.44-3.33,.09-1.1,.18-2.18,.26-3.23Z"/><path class="cls-1" d="M124.2,340.33c.02,1.58,.02,3.17-.02,4.76,.02-.78,.04-1.51,.07-2.17,.02-1.03-.03-1.9-.05-2.59Z"/><path class="cls-1" d="M124.18,345.43c0-.11,0-.23,0-.35,0,.11,0,.23,0,.35Z"/><path class="cls-1" d="M117.22,385.69l-.07,.21c-.29,.85-.59,1.7-.89,2.54,.25-.65,.58-1.47,.87-2.48,.03-.09,.06-.19,.08-.28Z"/></g></svg>