<?xml version="1.0" encoding="UTF-8"?><svg id="Art" xmlns="http://www.w3.org/2000/svg" viewBox="0 0 690 862.5"><defs><style>.cls-1{fill:#fff;}.cls-2{fill:#e02826;}</style></defs><g><path class="cls-1" d="M681.22,630.17c1.68,.93,3.59,1.76,5.57,2.7,.04,.02,.09,.04,.13,.06-2.04-.95-4.07-1.94-6.09-2.97,.13,.07,.26,.13,.39,.21Z"/><path class="cls-1" d="M689.84,634.3c.05,.02,.11,.04,.16,.07v-.04c-1.02-.45-2.04-.91-3.05-1.38,.95,.44,1.91,.9,2.89,1.36Z"/><path class="cls-1" d="M674.77,626.74h0s.06,.04,.1,.06c.83,.48,1.78,.99,2.83,1.53-.98-.52-1.95-1.05-2.92-1.59Z"/><path class="cls-1" d="M671.41,624.83c-6.82-3.97-13.42-8.44-19.82-13.16-7.42-5.53-14.6-11.46-21.24-17.88-1.49-1.43-2.96-2.88-4.4-4.35,.3,.3,.46,.47,.46,.47,0,0-.73-.25-2.08-.62-.68-.19-1.51-.41-2.49-.65-.96-.25-2.05-.54-3.27-.83-4.94-1.14-11.83-2.53-20.01-3.5-15.73-1.79-27.37-5.22-31.44-12.9,0,.02,.02,.03,.03,.05l2.03,3.7c.65,1.24,1.42,2.43,2.16,3.64l2.23,3.6c.72,1.21,1.56,2.36,2.36,3.53l2.43,3.49c.8,1.2,1.66,2.23,2.49,3.33l2.52,3.26c6.81,8.58,14.17,16.53,21.95,23.99,1.57,1.52,3.17,3,4.78,4.47-.04-.04-.07-.06-.07-.06,0,0,.21,.07,.6,.2,.39,.13,.97,.31,1.74,.51,1.52,.4,3.72,.92,6.43,1.4,2.68,.51,5.96,.85,9.54,.97,1.79,.06,3.66,.08,5.59,0,1.96-.11,3.98-.3,6.02-.58,15.49-2.17,25.27-5.3,31.46-2.1Z"/><path class="cls-1" d="M614.45,628.31c.29,.25,.62,.53,.93,.8-1.36-1.16-2.73-2.32-4.06-3.52,.76,.66,1.82,1.58,3.13,2.71Z"/><path class="cls-1" d="M615.38,629.12c.67,.57,1.32,1.16,2,1.73-.71-.61-1.37-1.18-2-1.73Z"/><path class="cls-1" d="M623.58,635.89c-1.22-.96-2.43-1.93-3.63-2.92,1.16,.93,2.37,1.9,3.63,2.92Z"/><path class="cls-1" d="M651.63,655.24c-.42-.23-.85-.48-1.29-.75,2.23,1.34,4.48,2.65,6.76,3.91,.07,.04,.15,.08,.23,.12-.86-.5-1.82-1.04-2.86-1.64-.82-.47-1.79-1.03-2.84-1.64Z"/><path class="cls-1" d="M684.08,658.75c-1.6,.6-3.16,1.14-4.66,1.61-1.51,.49-2.92,.81-4.31,1.12-2.76,.58-5.32,.88-7.67,.79-2.3-.15-4.39-.68-6.26-1.66-.23-.12-.51-.27-.82-.43,8.5,4.54,17.34,8.61,26.6,12,1.01,.37,2.02,.73,3.04,1.08v-16.88c-.32,.14-.66,.3-.97,.43-1.69,.7-3.34,1.35-4.94,1.95Z"/><path class="cls-1" d="M642.97,649.86c2.4,1.57,4.83,3.11,7.3,4.6-1.36-.82-2.82-1.77-4.4-2.76-.93-.59-1.91-1.2-2.9-1.84Z"/><path class="cls-1" d="M683.94,217.47c.26-.13,.52-.25,.79-.38,1.24-.6,2.51-1.21,3.8-1.83,.48-.24,.97-.47,1.47-.7h0c-2.04,.93-4.06,1.9-6.06,2.91Z"/><path class="cls-1" d="M661.78,276.5c-.16,.14-.33,.29-.48,.43-.14,.13-.27,.26-.41,.39,.3-.27,.6-.54,.9-.81Z"/><path class="cls-1" d="M597.69,374.9c-.09,.26-.19,.51-.28,.76,1.58-4.32,3.26-8.61,5.03-12.85-.9,2.11-1.71,4.22-2.52,6.2-.86,2.08-1.57,4.08-2.24,5.88Z"/><path class="cls-1" d="M605.48,355.81c-.97,2.22-1.95,4.48-2.91,6.69,0,0,0,0,0,0,1.67-3.98,3.45-7.91,5.32-11.8-.78,1.66-1.59,3.37-2.41,5.11Z"/><path class="cls-1" d="M675.95,264.89s-.04,.03-.06,.04c.02-.01,.04-.03,.06-.04Z"/><path class="cls-1" d="M671.85,268.01c1.34-1.05,2.68-2.07,4.05-3.08-1.32,.96-2.68,1.94-3.99,3.03-.02,.02-.04,.03-.06,.05Z"/><path class="cls-1" d="M685.68,258.15c-.99,.66-2.08,1.39-3.23,2.16-.79,.53-1.62,1.08-2.48,1.65-.84,.61-1.7,1.24-2.59,1.89-.47,.35-.95,.7-1.43,1.05,4.08-3.02,8.28-5.85,12.58-8.49,.49-.3,.98-.58,1.47-.88h0c-.46,.27-.98,.58-1.56,.93-.81,.51-1.77,1.03-2.76,1.69Z"/><path class="cls-1" d="M609.72,570.86c-.08-.11-.17-.22-.26-.34,.46,.6,.93,1.2,1.39,1.8l-1.13-1.46Z"/><path class="cls-1" d="M608.85,569.73c.2,.26,.41,.52,.61,.79-.02-.03-.04-.06-.07-.09l-.54-.7Z"/><path class="cls-1" d="M556.91,386.4c.3,1.52,.8,3.71,1.55,6.33,.72,2.61,1.82,5.69,3.24,8.96,.71,1.64,1.49,3.32,2.4,5.04,.92,1.72,1.94,3.47,3.05,5.2,1.09,1.66,2.13,3.25,3.12,4.78,1.03,1.5,2.01,2.94,2.96,4.33,1.88,2.74,3.47,5.2,4.88,7.48,1.38,2.28,2.43,4.36,3.07,6.32,.65,1.96,.97,3.81,.75,5.62-.09,.77-.24,2.01-.42,3.55-.17,1.98-.4,4.49-.65,7.35-.15,2.07-.29,4.35-.4,6.75,.22-4.62,.56-9.23,1.02-13.85,.97-9.32,2.42-18.61,4.32-27.83s4.22-18.35,7.05-27.34c1.4-4.48,2.91-8.93,4.51-13.34-.54,1.46-1.03,2.78-1.42,3.92-.91,2.73-1.47,4.4-1.47,4.4,0,0-.1-.78-.37-2.17-.26-1.39-.73-3.43-1.29-5.9-.58-2.48-1.41-5.45-2.44-8.74-.99-3.28-2.26-6.91-3.82-10.74-5.75-14.32-9.19-24.9-5.96-32.21-4.16,7.91-8.03,15.96-11.47,24.18-4.1,9.78-7.73,19.74-10.89,29.86-.6,1.9-1.16,3.81-1.71,5.72,.01,.08,.04,.27,.08,.58,.05,.4,.15,1,.31,1.76Z"/><path class="cls-1" d="M617.88,580.87c.69,.76,1.36,1.48,1.99,2.17,1.27,1.38,2.4,2.62,3.35,3.65,.87,.88,1.57,1.59,2.11,2.13-3.54-3.62-6.93-7.34-10.16-11.17,.22,.26,.46,.54,.67,.8,.7,.83,1.38,1.64,2.04,2.42Z"/><path class="cls-1" d="M611.94,573.72c.96,1.26,1.97,2.45,2.96,3.62-1-1.2-1.99-2.4-2.96-3.62Z"/><path class="cls-1" d="M614.9,577.34c.09,.1,.18,.21,.27,.31-.09-.1-.18-.21-.27-.31Z"/><path class="cls-1" d="M611.71,573.43l.08,.11c.05,.06,.1,.12,.15,.19-.08-.1-.16-.19-.24-.29Z"/><path class="cls-1" d="M580.26,464.47c.04-1.99,.1-3.99,.19-5.98-.08,1.94-.15,3.94-.19,5.98Z"/><path class="cls-1" d="M550.3,409.11c-.01,.07-.02,.13-.04,.2,.05-.24,.1-.48,.15-.72-.04,.18-.08,.35-.11,.52Z"/><path class="cls-1" d="M549.33,522.21c-.2-.9-.39-1.81-.58-2.71,.18,.86,.37,1.77,.58,2.71Z"/><path class="cls-1" d="M547.47,512.72c.39,2.26,.82,4.52,1.28,6.78-.22-1.09-.42-2.12-.58-3.05-.28-1.51-.52-2.76-.7-3.73Z"/><path class="cls-1" d="M629.54,313.38c5.36-7.62,11.11-14.91,17.27-21.79,1.45-1.63,2.92-3.23,4.42-4.8-.08,.08-.16,.16-.23,.23-.55,.55-.84,.87-.84,.87,0,0,.21-.76,.57-2.08,.35-1.35,.81-3.31,1.28-5.81,1-4.94,2.14-11.93,2.84-20.12,.28-4.02,.76-7.61,1.25-11.01,.26-1.68,.52-3.33,.85-4.84,.34-1.51,.71-2.94,1.12-4.3,.41-1.35,.86-2.63,1.36-3.81,.49-1.2,1.04-2.29,1.68-3.25,1.17-1.81,2.54-3.3,4.15-4.44-16.98,11-32.22,24.32-45.43,39.15-1.4,1.57-2.77,3.16-4.13,4.76-.06,.21-.3,1.01-.62,2.3-.36,1.53-.9,3.69-1.23,6.45-.35,2.75-.67,5.97-.7,9.55,.02,3.61,.25,7.52,.91,11.59,.69,3.96,1.4,7.54,2.01,10.76,.66,3.26,1.25,6.19,1.6,8.79,.33,2.6,.54,4.94,.4,7.01-.14,2.07-.64,3.85-1.53,5.44-.37,.68-.97,1.77-1.71,3.13-.96,1.75-2.19,3.95-3.46,6.53-.88,1.76-1.91,3.66-2.87,5.72-.04,.08-.07,.16-.11,.23,2.04-4.2,4.18-8.34,6.41-12.43,4.51-8.21,9.38-16.22,14.74-23.83Z"/><path class="cls-1" d="M555.41,387.98c.19-.7,.37-1.41,.57-2.11-.16,.58-.35,1.29-.57,2.11Z"/><path class="cls-1" d="M599.83,292.6c-3.14,4.47-6.13,9.03-8.98,13.67,2.86-4.61,6.25-9.77,9.67-14.62-.23,.32-.46,.63-.69,.95Z"/><path class="cls-1" d="M582.99,319.8s-.03,.06-.05,.09c.05-.09,.1-.18,.15-.27-.03,.06-.06,.12-.1,.17Z"/><path class="cls-1" d="M608.18,568.85l.14,.2,.35,.45c-.17-.22-.33-.43-.49-.65Z"/><path class="cls-1" d="M676.75,221.3c1.39-.78,2.8-1.54,4.22-2.28-1.5,.81-2.92,1.58-4.22,2.28Z"/><path class="cls-1" d="M669.61,225.47s-.03,.02-.04,.03c.23-.14,.46-.27,.69-.42-.22,.13-.43,.26-.65,.39Z"/><path class="cls-1" d="M509.82,536.54c-3.96,0-7.91-.04-11.86-.1,2.02,.03,4.12,.06,6.24,.08,1.87,0,3.75,.01,5.62,.02Z"/><path class="cls-1" d="M531,536.34c.64-.01,1.21-.03,1.74-.04-3.74,.08-7.47,.15-11.2,.19,1.46-.01,2.85-.03,4.16-.04,2.01-.04,3.8-.08,5.3-.11Z"/><path class="cls-1" d="M671.64,562.86l.35-.05,.52-.1c-.31,.06-.61,.1-.88,.14Z"/><path class="cls-1" d="M688.25,559.57c-.85,.2-1.68,.4-2.5,.59,.69-.17,1.38-.34,2.08-.5l.42-.1Z"/><path class="cls-1" d="M683.84,560.58l.1-.02c.19-.03,.37-.08,.55-.12-.22,.04-.44,.1-.65,.14Z"/><path class="cls-1" d="M679.96,561.32l1.5-.29c-1.06,.2-2.09,.39-3.04,.57l1.54-.29Z"/><path class="cls-1" d="M368.69,520.87c-.38-.09-.76-.18-1.14-.28,.04,0,.07,.02,.1,.03,.32,.08,.69,.16,1.04,.25Z"/><path class="cls-1" d="M637.41,529.96c.88-.08,1.74-.15,2.58-.23l-9.72,.84c-4.69,.39-9.37,.78-14.05,1.15,6.86-.55,14.53-1.18,21.2-1.76Z"/><path class="cls-1" d="M512.37,536.55c1.84,0,3.63,0,5.38-.02-1.79,.01-3.59,.02-5.38,.02Z"/><path class="cls-1" d="M402.97,528.09c.77,.12,1.52,.25,2.25,.37-3.03-.51-6.06-1.04-9.08-1.61,2.34,.44,4.63,.9,6.82,1.24Z"/><path class="cls-1" d="M406.23,528.63c-.33-.06-.67-.11-1.01-.17,.34,.06,.68,.11,1.01,.17Z"/><path class="cls-1" d="M415.26,530.06c-3.01-.45-6.02-.93-9.02-1.43,3.21,.54,6.05,1.03,8.26,1.32,.27,.04,.52,.07,.76,.11Z"/><path class="cls-1" d="M385.39,524.7s-.01,0-.02,0c0,0,.01,0,.02,0Z"/><path class="cls-1" d="M395.35,526.7c-3.33-.63-6.65-1.3-9.96-2,1.04,.22,2.08,.44,3.14,.67,2.26,.48,4.56,.89,6.83,1.32Z"/><path class="cls-1" d="M385.37,524.7c-3.31-.7-6.61-1.43-9.91-2.2,2.96,.74,6.36,1.44,9.91,2.2Z"/><path class="cls-1" d="M352.77,554.18c-.25-.06-.51-.13-.77-.2,1.43,.39,2.86,.76,4.29,1.14-.16-.04-.31-.08-.48-.13-.88-.23-1.92-.51-3.04-.81Z"/><path class="cls-1" d="M312.87,502.73c-1.76-.75-3.53-1.48-5.3-2.22-.02,0-.81,.04-2.23,.19-.72,.08-1.59,.18-2.61,.33-1.01,.13-2.16,.28-3.43,.48-2.54,.4-5.57,.97-8.96,1.79-3.39,.83-7.09,1.76-10.99,3.1-14.93,5.13-25.33,8.51-32.39,5.09,7.86,4.14,15.75,8.25,23.82,12.08l6.94,3.37,7.13,3.23c4.73,2.21,9.59,4.12,14.39,6.16,3.21,1.3,6.43,2.55,9.67,3.77-2.4-.92-3.85-1.48-3.85-1.48,0,0,3.44-.14,8.73-1.13,2.67-.55,5.79-1.32,9.17-2.4,1.69-.54,3.44-1.15,5.23-1.86,1.8-.74,3.64-1.57,5.49-2.49,3.58-1.79,6.8-3.45,9.76-4.98,2.97-1.55,5.65-2.9,8.1-3.95,4.86-2.04,8.9-3.08,12.48-2.15-17.41-4.62-34.54-10.18-51.17-16.94Z"/><path class="cls-1" d="M436.17,569.19c-.88-.09-1.71-.18-2.5-.26,.83,.09,1.67,.18,2.5,.26Z"/><path class="cls-1" d="M679.86,524.31c-1.14,.26-2.29,.59-3.42,.78l-3.39,.64-6.79,1.29-6.62,.84-3.31,.43-2.29,.2c.15-.01,.25-.02,.25-.02,0,0-11.42,6.54-22.15,19.07-9.94,11.6-16.67,19.93-24.09,21.11-.27,.04-.54,.09-.81,.11,.28-.02,.56-.04,.84-.06,8.43-.63,16.84-1.3,25.24-2l15.03-1.3,7.5-.67,3.75-.34,4.13-.51,5.99-.77c.1-.06,.85-.49,2.09-1.31,1.28-.94,3.08-2.35,5.15-4.17,2.07-1.85,4.45-4.03,6.79-6.75,2.12-2.51,4.25-5.36,6.25-8.48v-20.55c-1.1,.3-2.19,.59-3.29,.83l-6.86,1.64Z"/><path class="cls-1" d="M358.63,555.74c.17,.04,.34,.08,.52,.13-.33-.08-.67-.17-1.02-.26,.17,.04,.33,.09,.5,.13Z"/><path class="cls-1" d="M427.15,568.21c.17,.02,.38,.04,.58,.07-.69-.08-1.39-.17-2.08-.26,0,0,0,0,0,0,0,0,.54,.07,1.51,.18Z"/><path class="cls-1" d="M362.95,556.78s.04,0,.06,0c-.39-.09-.77-.18-1.16-.27,.43,.1,.8,.19,1.1,.26Z"/><path class="cls-1" d="M496.23,536.41c-24.14-.45-48.13-1.99-71.84-5.06-1.73-.23-3.46-.47-5.2-.71-.07,.02-3.11,.97-7.79,3.11-2.37,1.04-5.15,2.37-8.21,4.04-1.53,.83-3.12,1.75-4.76,2.75-1.63,.97-3.31,2.03-5.02,3.18-3.3,2.22-6.37,4.3-9.23,6.09-2.86,1.77-5.52,3.29-8.01,4.5-4.97,2.44-9.26,3.41-13.17,2.5,18.75,4.53,37.69,8.02,56.7,10.5,1.98,.26,3.96,.49,5.95,.73,.01,0,.82-.25,2.23-.77,1.42-.51,3.45-1.34,5.88-2.52,2.43-1.17,5.25-2.66,8.26-4.5,3.01-1.87,6.2-4.15,9.37-6.78,3.06-2.54,5.82-4.94,8.37-7.12,2.55-2.16,4.87-4.06,7.05-5.62,4.37-3.16,8.16-5,11.94-4.81,.81,.05,2.1,.07,3.72,.13,2.08,.07,4.7,.15,7.7,.25,1.88,.04,3.93,.08,6.08,.12Z"/><path class="cls-1" d="M571.33,554c5.37-5.89,9.75-10.98,13.74-14.62,.02-.02,.03-.03,.05-.04,1.9-1.74,3.71-3.15,5.5-4.18,1.96-1.13,3.9-1.82,5.9-1.95,.82-.06,2.13-.16,3.77-.28,2.1-.15,4.77-.35,7.8-.57,2.1-.16,4.4-.34,6.82-.53-4.79,.38-9.58,.75-14.36,1.09-3.49,.26-6.99,.49-10.48,.72-3.74-10.8-6.35-22.17-7.91-33.77-1.51-11.14-2.11-22.48-1.94-33.87-.07,4.41-.04,8.87,.14,12.92,.3,8.86,1.16,15.66,1.16,15.66,0,0-.42-.65-1.24-1.78-.85-1.13-2.02-2.77-3.58-4.76-1.56-1.99-3.55-4.33-5.77-6.92-2.25-2.58-4.92-5.39-7.79-8.28-11.29-11.21-18.82-19.89-18.09-28.11,.09-.91,.2-2.43,.39-4.36,0,.08-.02,.16-.03,.23-2.12,21.18-2.08,42.73,.83,64.2,.26,1.94,.56,3.87,.87,5.81,0,.01,.12,.19,.34,.53,.22,.35,.56,.86,1.04,1.5,.95,1.28,2.35,3.08,4.18,5.15,3.69,4.14,9.3,9.32,16.5,13.39,2.19,1.25,4.31,2.35,6.32,3.37-7.6,.44-15.2,.81-22.79,1.12-.49-1.76-.95-3.5-1.42-5.19-.74-2.93-1.4-5.72-1.96-8.25,.98,4.5,2.09,8.98,3.37,13.44-3.78,.15-7.57,.3-11.35,.42-2.4,.07-4.8,.14-7.2,.2,1.07-.02,1.69-.04,1.69-.04,0,0-2.91,1.43-7.27,4.34-4.36,2.92-10.18,7.22-16.04,13.04-5.67,5.57-10.46,10.38-14.83,13.67-4.34,3.3-8.26,5.23-12.22,5.11,19.06,.59,38.07,.49,56.99-.09,1.92-.06,3.84-.14,5.76-.21,.19-.1,.89-.45,2-1.07,1.3-.75,3.16-1.88,5.36-3.38,2.08-1.41,4.48-3.19,7.01-5.3,0,0,0,0,.01-.01,2.82-2.35,5.81-5.12,8.73-8.33Z"/><path class="cls-1" d="M603.18,569.07s-.01,0-.02,0c0,0,0,0,0,0,0,0,0,0,.01,0Z"/><path class="cls-1" d="M52.03,350.25c-16.61-9.13-33.58-17.77-50.98-25.68-.35-.16-.7-.31-1.05-.46v35.14c5.17-.76,12.07-1.87,19.77-4.38,7.62-2.49,14.03-4.46,19.44-5.44,5.16-.91,9.45-.92,12.82,.81Z"/><path class="cls-1" d="M88.85,371.56c-1.85-1.12-3.8-2.3-5.78-3.5,5.01,2.99,9.98,6.01,14.93,9.06-2.48-1.53-5.64-3.45-9.15-5.56Z"/><path class="cls-1" d="M75.56,363.64c-.63-.36-1.24-.72-1.86-1.08,2.57,1.5,5.14,2.99,7.69,4.51-1.94-1.14-3.9-2.29-5.83-3.43Z"/><path class="cls-1" d="M73.7,362.55c-1.44-.84-2.86-1.69-4.3-2.52,1.4,.82,2.84,1.67,4.3,2.52Z"/><path class="cls-1" d="M171.63,424.11c-2.63-1.69-5.26-3.39-7.89-5.09,.58,.38,1.18,.76,1.81,1.17,1.86,1.21,3.92,2.53,6.08,3.92Z"/><path class="cls-1" d="M55.88,352.38c-.12-.07-.23-.13-.35-.19,1.62,.9,3.24,1.81,4.86,2.72-1.69-.95-3.23-1.81-4.51-2.53Z"/><path class="cls-1" d="M196.33,439.83c-3.86-2.42-7.71-4.86-11.56-7.31,1.91,1.22,3.79,2.41,5.58,3.54,2.15,1.36,4.17,2.63,5.98,3.77Z"/><path class="cls-1" d="M305.12,499.48c-1.64-.69-3.27-1.4-4.89-2.15,1.1,.5,2.11,.96,3,1.36,.71,.3,1.34,.56,1.89,.79Z"/><path class="cls-1" d="M292.69,493.91c.06,.03,.12,.05,.17,.08l-6.3-3.06c-5.21-2.47-10.37-5.09-15.51-7.76,2.61,1.37,5.42,2.84,8.32,4.26,4.51,2.19,9.14,4.45,13.32,6.48Z"/><path class="cls-1" d="M267.02,481.07c-2.17-1.14-4.34-2.28-6.51-3.43-.01,0-.02-.01-.04-.02,1.76,.98,3.96,2.1,6.45,3.4,.03,.02,.07,.04,.1,.05Z"/><path class="cls-1" d="M105.01,424.33c2.46,1.57,4.92,3.14,7.37,4.71-.99-.64-1.97-1.27-2.93-1.89-1.54-.98-3.03-1.93-4.44-2.82Z"/><path class="cls-1" d="M256.54,475.49c-15.86-8.64-31.48-17.91-47.03-27.46-4.16-2.56-8.31-5.14-12.46-7.74,1.27,.8,2.43,1.53,3.44,2.17,2.57,1.6,4.14,2.57,4.14,2.57,0,0-3.25-.38-8.51-.37-5.25,.01-12.54,.49-20.61,2.21-15.59,3.32-26.23,5.99-32.76,1.76-1.08-.7-3.21-2.07-5.96-3.85-.73-.47-1.6-1.04-2.54-1.64-.32-.21-.66-.43-1.01-.65,18.88,12.21,37.87,24.49,57.27,36.42,1.57,.96,3.14,1.92,4.71,2.88,.4,.05,3.61,.43,8.6,.34,5.35-.11,12.66-.64,20.67-2.7,7.75-2,14.16-3.85,19.46-4.71,5.17-.91,9.29-.89,12.58,.78Z"/><path class="cls-1" d="M217.91,495.32c-.84-.49-1.68-.97-2.52-1.46,.83,.48,1.67,.97,2.52,1.46Z"/><path class="cls-1" d="M240.3,507.91c-.78-.43-1.71-.94-2.71-1.49-5.04-2.7-12.45-6.91-19.68-11.1,8.32,4.84,16.73,9.58,25.26,14.16-.86-.47-1.82-1-2.87-1.58Z"/><path class="cls-1" d="M103.36,380.45c-.45-.28-1.81-1.14-3.85-2.4,1.29,.8,2.57,1.6,3.85,2.4Z"/><path class="cls-1" d="M155.72,413.85c-15.66-10.12-31.4-20.3-47.37-30.29-1.66-1.04-3.32-2.07-4.99-3.1,.1,.06,.17,.11,.17,.11,0,0-3.31-.44-8.61-.43-5.34,.06-12.69,.6-20.69,2.52-7.75,1.89-14.22,3.71-19.54,4.52-5.32,.79-9.56,.73-12.88-1.13,15.94,8.95,31.68,18.43,47.32,28.25,3.43,2.14,6.85,4.31,10.27,6.47-3.39-2.15-5.56-3.53-5.56-3.53,0,0,3.25,.44,8.51,.44,5.26,0,12.56-.43,20.63-2.11,15.6-3.28,26.21-5.93,32.74-1.72Z"/><path class="cls-1" d="M0,364.11v.02c1.9,.92,3.8,1.84,5.69,2.78-1.54-.77-3.03-1.51-4.41-2.21-.44-.2-.86-.4-1.28-.6Z"/><path class="cls-1" d="M7.57,367.85s.01,0,.02,0c0,0-.01,0-.02,0,0,0,0,0,0,0Z"/><path class="cls-1" d="M35.75,382.65c-.75-.42-1.63-.91-2.59-1.45-6.29-3.36-16.64-8.98-25.58-13.34,10.22,5.1,20.34,10.45,30.38,16.03-.68-.38-1.42-.79-2.21-1.24Z"/><path class="cls-1" d="M171.81,424.23c3.78,2.43,7.87,5.05,11.85,7.59-3.95-2.52-7.9-5.05-11.85-7.59Z"/></g><g><path class="cls-2" d="M686.95,632.94s-.02,0-.02-.01c-.04-.02-.09-.04-.13-.06-1.98-.94-3.89-1.77-5.57-2.7-.13-.07-.26-.14-.39-.21-1.11-.59-2.17-1.13-3.14-1.64-1.05-.54-2-1.05-2.83-1.53-.03-.02-.06-.04-.1-.06-1.27-.73-2.29-1.32-2.93-1.69-.14-.08-.29-.14-.43-.21-6.19-3.2-15.97-.06-31.46,2.1-2.05,.28-4.06,.47-6.02,.58-1.93,.07-3.8,.06-5.59,0-3.59-.13-6.86-.47-9.54-.97-2.7-.48-4.91-1-6.43-1.4-.77-.2-1.35-.37-1.74-.51-.39-.13-.6-.2-.6-.2,0,0,.03,.03,.07,.06,.14,.13,.51,.48,1.1,1.01,.04,.03,.08,.07,.12,.11,.76,.66,1.82,1.58,3.13,2.71,.88,.75,1.86,1.62,2.93,2.53,.61,.52,1.24,1.05,1.92,1.6,.22,.17,.44,.36,.67,.54,1.16,.93,2.37,1.9,3.63,2.92,.58,.46,1.16,.93,1.75,1.41,2.17,1.68,4.49,3.37,6.8,5.09,1.15,.87,2.33,1.7,3.52,2.51,1.18,.81,2.36,1.62,3.51,2.41,1.27,.9,2.55,1.74,3.8,2.54,.99,.63,1.96,1.25,2.9,1.84,1.58,.99,3.04,1.94,4.4,2.76,.02,.01,.04,.03,.07,.04,.44,.26,.87,.52,1.29,.75,1.05,.61,2.02,1.17,2.84,1.64,1.04,.6,2,1.15,2.86,1.64,.41,.24,.8,.46,1.17,.67,.73,.38,1.35,.71,1.87,.98,.31,.16,.59,.31,.82,.43,1.87,.98,3.96,1.51,6.26,1.66,2.35,.08,4.9-.21,7.67-.79,1.39-.31,2.79-.63,4.31-1.12,1.51-.48,3.06-1.02,4.66-1.61,1.6-.6,3.25-1.25,4.94-1.95,.32-.13,.65-.29,.97-.43v-22c-.05-.02-.11-.04-.16-.07-.98-.46-1.94-.91-2.89-1.36Z"/><path class="cls-2" d="M590.38,367.26c1.03,3.29,1.86,6.27,2.44,8.74,.57,2.47,1.04,4.5,1.29,5.9,.27,1.4,.37,2.17,.37,2.17,0,0,.56-1.66,1.47-4.4,.39-1.14,.89-2.46,1.42-3.92,.01-.03,.02-.06,.03-.09,.09-.25,.18-.5,.28-.76,.66-1.8,1.37-3.81,2.24-5.88,.81-1.98,1.61-4.09,2.52-6.2,.04-.1,.08-.21,.13-.31,0,0,0,0,0,0,.96-2.21,1.94-4.47,2.91-6.69,.82-1.74,1.62-3.44,2.41-5.11,.17-.35,.34-.72,.5-1.07,.04-.08,.07-.16,.11-.23,.96-2.06,1.99-3.96,2.87-5.72,1.27-2.58,2.5-4.78,3.46-6.53,.75-1.36,1.34-2.45,1.71-3.13,.89-1.59,1.39-3.37,1.53-5.44,.14-2.07-.06-4.41-.4-7.01-.35-2.61-.94-5.54-1.6-8.79-.61-3.23-1.33-6.8-2.01-10.76-.66-4.07-.89-7.98-.91-11.59,.03-3.58,.35-6.8,.7-9.55,.33-2.76,.87-4.91,1.23-6.45,.32-1.3,.55-2.09,.62-2.3,.01-.04,.02-.06,.02-.06,0,0-.41,.49-1.14,1.35-.02,.03-.05,.06-.08,.09-.65,.77-1.52,1.8-2.58,3.06-.69,.88-1.47,1.87-2.31,2.93-.13,.17-.26,.33-.4,.5-.4,.5-.8,1.02-1.23,1.56-.73,.94-1.52,1.92-2.3,2.95-.37,.51-.76,1.04-1.15,1.57,0,.01-.02,.02-.03,.04-.4,.54-.78,1.07-1.19,1.63-.93,1.26-1.87,2.57-2.81,3.9-3.42,4.85-6.8,10.01-9.67,14.62-1.83,2.95-3.45,5.67-4.73,7.93-.62,1.02-1.15,1.98-1.59,2.8-.52,.95-1,1.82-1.44,2.62-.05,.09-.1,.18-.15,.27-.9,1.64-1.6,2.93-2.03,3.71-.12,.22-.2,.46-.3,.69-3.23,7.32,.21,17.89,5.96,32.21,1.56,3.83,2.83,7.46,3.82,10.74Z"/><path class="cls-2" d="M688.53,215.26c-1.29,.62-2.57,1.23-3.8,1.83-.27,.13-.52,.25-.79,.38-.35,.17-.7,.34-1.04,.5-.58,.31-1.16,.62-1.72,.92-.08,.04-.15,.08-.22,.12-1.5,.81-2.92,1.58-4.22,2.28-.56,.31-1.11,.6-1.63,.88-1.08,.6-2.04,1.21-2.86,1.7-.7,.43-1.37,.83-1.99,1.2-.24,.14-.47,.28-.69,.42-1.77,1.06-3.16,1.89-3.94,2.45-.13,.08-.24,.19-.37,.28-1.61,1.15-2.98,2.63-4.15,4.44-.64,.96-1.19,2.05-1.68,3.25-.5,1.19-.95,2.46-1.36,3.81-.41,1.35-.78,2.79-1.12,4.3-.34,1.51-.59,3.16-.85,4.84-.49,3.4-.97,6.99-1.25,11.01-.7,8.19-1.84,15.17-2.84,20.12-.47,2.5-.93,4.46-1.28,5.81-.36,1.32-.57,2.08-.57,2.08,0,0,.29-.32,.84-.87,.07-.07,.15-.16,.23-.23,.53-.54,1.23-1.26,2.09-2.13,.53-.52,1.1-1.12,1.71-1.75,.37-.38,.76-.76,1.16-1.15,1.54-1.5,3.1-2.98,4.68-4.42,.14-.13,.27-.25,.41-.39,.16-.14,.33-.29,.48-.43,1.58-1.42,3.17-2.82,4.79-4.19,.77-.69,1.58-1.35,2.4-1.99,.06-.05,.12-.1,.19-.15,.9-.72,1.8-1.44,2.7-2.16,.02-.02,.04-.03,.06-.05,1.8-1.51,3.71-2.81,5.47-4.12,.89-.65,1.75-1.28,2.59-1.89,.86-.57,1.69-1.12,2.48-1.65,1.15-.77,2.23-1.49,3.23-2.16,.99-.66,1.95-1.19,2.76-1.69,.58-.35,1.1-.66,1.56-.94v-40.96c-.49,.23-.99,.46-1.47,.7Z"/><path class="cls-2" d="M563.14,472.83c2.88,2.9,5.54,5.7,7.79,8.28,2.21,2.59,4.2,4.93,5.77,6.92,1.56,1.99,2.73,3.63,3.58,4.76,.83,1.13,1.24,1.78,1.24,1.78,0,0-.86-6.81-1.16-15.66-.18-4.04-.21-8.51-.14-12.92,0-.51,.02-1.02,.03-1.52,.04-2.04,.11-4.04,.19-5.98,0-.13,.01-.25,.02-.38,.11-2.4,.24-4.68,.4-6.75,.25-2.86,.47-5.37,.65-7.35,.18-1.54,.33-2.77,.42-3.55,.23-1.81-.09-3.66-.75-5.62-.64-1.96-1.69-4.04-3.07-6.32-1.41-2.28-3-4.74-4.88-7.48-.95-1.39-1.94-2.83-2.96-4.33-1-1.53-2.04-3.12-3.12-4.78-1.11-1.74-2.13-3.48-3.05-5.2-.91-1.72-1.68-3.4-2.4-5.04-1.41-3.28-2.52-6.35-3.24-8.96-.75-2.62-1.24-4.8-1.55-6.33-.16-.76-.26-1.36-.31-1.76-.04-.31-.07-.5-.08-.58,0-.02,0-.04,0-.04,0,0-.16,.53-.44,1.5-.03,.11-.07,.24-.1,.36-.16,.58-.35,1.29-.57,2.11-.14,.51-.28,1.04-.44,1.62-.08,.3-.17,.62-.25,.94-.05,.19-.1,.37-.15,.57-.38,1.37-.81,2.9-1.2,4.56-.37,1.56-.77,3.22-1.19,4.95-.07,.27-.13,.55-.2,.82-.13,.55-.27,1.11-.4,1.67-.38,1.78-.76,3.62-1.16,5.47-.05,.24-.1,.48-.15,.72-.14,.67-.28,1.33-.42,2.01-.57,2.78-1.03,5.61-1.53,8.32-.34,1.75-.59,3.46-.83,5.12,0,.06-.02,.12-.03,.17-.12,.85-.25,1.69-.37,2.5-.18,1.22-.35,2.38-.52,3.48-.07,.6-.14,1.18-.21,1.74,0,.08-.02,.15-.03,.23-.05,.39-.09,.78-.14,1.14-.14,1.18-.27,2.28-.38,3.2-.15,1.14-.26,2.19-.36,3.14-.19,1.93-.3,3.44-.39,4.36-.74,8.22,6.79,16.91,18.09,28.11Z"/><path class="cls-2" d="M551.29,530.46c.48,1.69,.93,3.44,1.42,5.19,7.59-.31,15.18-.68,22.79-1.12-2.01-1.02-4.14-2.12-6.32-3.37-7.2-4.07-12.81-9.25-16.5-13.39-1.83-2.07-3.23-3.87-4.18-5.15-.48-.64-.82-1.15-1.04-1.5-.21-.34-.33-.52-.34-.53,0,0,0,0,0,0,0,0,.09,.56,.25,1.58,.03,.17,.07,.36,.1,.55,.18,.97,.42,2.22,.7,3.73,.63,3.62,1.75,8.58,3.12,14Z"/><path class="cls-2" d="M621.84,588.65c.98,.24,1.81,.46,2.49,.65,1.35,.37,2.08,.62,2.08,.62,0,0-.16-.17-.46-.47-.16-.16-.37-.38-.62-.62-.53-.54-1.24-1.25-2.11-2.13-.95-1.03-2.08-2.27-3.35-3.65-.63-.69-1.3-1.42-1.99-2.17-.66-.78-1.34-1.59-2.04-2.42-1.33-1.6-2.8-3.25-4.13-5.02-.06-.08-.12-.15-.17-.23-.23-.29-.46-.59-.69-.89-.48-.63-.97-1.25-1.46-1.88l-.54-.7-.18-.24-.35-.45-.14-.2s-.07-.1-.1-.15c-.28,.02-.56,.04-.84,.06,.27-.02,.54-.07,.81-.11,7.43-1.18,14.15-9.51,24.09-21.11,10.73-12.54,22.15-19.07,22.15-19.07,0,0-.1,0-.25,.02-1.18,.1-6.78,.6-14.05,1.24-.84,.07-1.7,.15-2.58,.23-6.66,.59-14.34,1.22-21.2,1.76-.43,.03-.87,.07-1.3,.1-2.42,.19-4.73,.37-6.82,.53-3.03,.22-5.69,.42-7.8,.57-1.64,.12-2.95,.22-3.77,.28-2,.14-3.94,.82-5.9,1.95-1.79,1.03-3.6,2.44-5.5,4.18-.02,.02-.03,.03-.05,.04-4,3.64-8.37,8.73-13.74,14.62-2.93,3.21-5.91,5.98-8.73,8.33,0,0,0,0-.01,.01-2.53,2.11-4.93,3.89-7.01,5.3-2.2,1.5-4.06,2.63-5.36,3.38-1.1,.62-1.8,.98-2,1.07-.04,.02-.06,.03-.06,.03,0,0,2.13-.08,5.56-.21,1.15-.05,2.46-.1,3.87-.16,.06,0,.12,0,.18,0,2.75-.11,5.92-.25,9.28-.43,0,0,.01,0,.02,0,.02,.03,.04,.07,.05,.1,0,0,0,0,0,0,4.07,7.68,15.71,11.11,31.44,12.9,8.18,.98,15.07,2.37,20.01,3.5,1.23,.29,2.31,.58,3.27,.83Zm-18.67-19.58s0,0,0,0c0,0,.01,0,.02,0,0,0,0,0-.01,0Z"/><path class="cls-2" d="M532.75,536.3c-.53,.01-1.1,.02-1.74,.04-1.5,.03-3.3,.07-5.3,.11-1.3,.01-2.7,.03-4.16,.04-.79,0-1.58,.01-2.41,.02-.45,0-.93,0-1.39,.01-1.75,.02-3.55,.03-5.38,.02-.84,0-1.69,0-2.55,0-1.87,0-3.75-.02-5.62-.02-2.13-.02-4.22-.05-6.24-.08-.58,0-1.15-.02-1.73-.03-2.15-.04-4.2-.08-6.08-.12-2.99-.1-5.62-.18-7.7-.25-1.62-.06-2.91-.08-3.72-.13-3.78-.19-7.57,1.65-11.94,4.81-2.18,1.56-4.51,3.46-7.05,5.62-2.55,2.17-5.31,4.58-8.37,7.12-3.17,2.63-6.36,4.92-9.37,6.78-3.01,1.85-5.83,3.34-8.26,4.5-2.43,1.18-4.46,2-5.88,2.52-1.42,.53-2.23,.77-2.23,.77,0,0,.54,.07,1.51,.18,.17,.02,.38,.04,.58,.07,.92,.11,2.1,.27,3.53,.41,.74,.07,1.55,.15,2.41,.24,.79,.08,1.63,.17,2.5,.26,2.58,.27,5.49,.57,8.57,.83,6.83,.63,14.46,1.15,21.01,1.52,.07,0,.14,0,.2,.01,3.42,.2,6.54,.35,9.1,.46,1.15,.05,2.21,.1,3.1,.15,1.11,.04,2.12,.07,3.04,.1,.08,0,.17,0,.25,0,1.75,.06,3.12,.1,3.96,.13,.03,0,.05,0,.08,0,3.95,.12,7.87-1.81,12.22-5.11,4.37-3.29,9.17-8.11,14.83-13.67,5.87-5.82,11.68-10.12,16.04-13.04,4.36-2.91,7.27-4.34,7.27-4.34,0,0-.61,.01-1.69,.04-.4,0-.87,.02-1.41,.03Z"/><path class="cls-2" d="M414.49,529.95c-2.94-.38-6.97-1.12-11.53-1.86-2.2-.34-4.49-.8-6.82-1.24-.09-.02-.18-.03-.27-.05-.17-.03-.35-.06-.52-.1-2.26-.44-4.57-.84-6.83-1.32-4.67-1.02-9.24-1.92-13.06-2.88-.14-.04-.29-.07-.44-.11-2.4-.58-4.53-1.09-6.34-1.52-.35-.08-.71-.17-1.04-.25-.04,0-.07-.02-.1-.03-1.49-.4-2.68-.71-3.44-.92-.02,0-.05,0-.07-.01-3.59-.94-7.62,.1-12.48,2.15-2.46,1.05-5.14,2.4-8.1,3.95-2.96,1.52-6.18,3.18-9.76,4.98-1.85,.92-3.69,1.75-5.49,2.49-1.79,.71-3.54,1.32-5.23,1.86-3.38,1.08-6.51,1.85-9.17,2.4-5.3,.99-8.73,1.13-8.73,1.13,0,0,1.45,.56,3.85,1.48,.46,.18,.95,.37,1.49,.57,2.31,.9,5.28,1.93,8.58,3.09,.81,.28,1.62,.57,2.47,.87,.61,.22,1.23,.44,1.86,.66,4.07,1.36,8.44,2.76,12.69,4.07,.06,.02,.11,.03,.17,.05,5.91,1.82,11.56,3.47,15.84,4.57,.26,.07,.52,.13,.77,.2,1.12,.3,2.17,.58,3.04,.81,.16,.04,.32,.09,.48,.13,.64,.17,1.26,.34,1.84,.49,.35,.09,.69,.18,1.02,.26,1.06,.26,1.97,.48,2.7,.66,.43,.1,.8,.19,1.1,.26,3.93,.93,8.23-.04,13.23-2.49,2.49-1.2,5.15-2.73,8.01-4.5,2.86-1.79,5.93-3.88,9.23-6.09,1.71-1.15,3.39-2.21,5.02-3.18,1.64-1,3.23-1.92,4.76-2.75,3.06-1.67,5.84-2.99,8.21-4.04,4.69-2.14,7.72-3.08,7.79-3.11,0,0,0,0,0,0,0,0-1.48-.21-3.95-.57-.25-.04-.5-.07-.76-.11Z"/><path class="cls-2" d="M676.96,557.62c-2.08,1.83-3.88,3.23-5.15,4.17-1.23,.82-1.99,1.26-2.09,1.31,0,0-.02,.01-.02,.01,0,0,.58-.08,1.62-.21,.1-.01,.22-.03,.32-.05,.27-.04,.56-.09,.88-.14,.54-.1,1.12-.21,1.79-.34,0,0,.02,0,.02,0,.4-.08,.82-.16,1.27-.24,.87-.16,1.82-.34,2.83-.53,.96-.18,1.98-.37,3.04-.57,.14-.03,.27-.05,.41-.08,.63-.13,1.29-.25,1.96-.37,.22-.04,.44-.09,.65-.14,.35-.07,.71-.14,1.06-.23,.07-.02,.13-.03,.2-.05,.81-.19,1.65-.39,2.5-.59,.39-.09,.77-.18,1.16-.28,.19-.05,.39-.09,.59-.14h0v-16.77c-2,3.12-4.14,5.97-6.25,8.48-2.34,2.72-4.72,4.9-6.79,6.75Z"/><path class="cls-2" d="M103.53,380.56s-1.52-.95-4.02-2.5c-.51-.31-1.01-.62-1.52-.94-2.48-1.53-5.64-3.45-9.15-5.56-1.85-1.12-3.8-2.3-5.78-3.5-.24-.14-.46-.28-.7-.42-.32-.19-.65-.38-.97-.57-1.94-1.14-3.9-2.29-5.83-3.43-2.11-1.22-4.17-2.44-6.16-3.61-2.29-1.34-4.48-2.62-6.49-3.72-.88-.49-1.71-.96-2.51-1.41-1.69-.95-3.23-1.81-4.51-2.53-.12-.07-.23-.13-.35-.19-1.31-.73-2.37-1.33-3.05-1.71-.15-.08-.31-.15-.46-.22-3.37-1.72-7.66-1.71-12.82-.81-5.41,.97-11.81,2.94-19.44,5.44-7.7,2.5-14.6,3.62-19.77,4.38v4.85c.42,.19,.84,.39,1.28,.6,1.38,.69,2.87,1.43,4.41,2.21,.63,.31,1.25,.63,1.88,.94,0,0,0,0,0,0,8.94,4.36,19.3,9.99,25.59,13.35,.96,.54,1.84,1.03,2.59,1.45,.8,.45,1.53,.86,2.21,1.24,1.72,.96,3.05,1.71,3.84,2.15,0,0,0,0,0,0,3.32,1.85,7.56,1.92,12.88,1.13,5.32-.81,11.79-2.63,19.54-4.52,8-1.93,15.35-2.47,20.69-2.52,5.31-.02,8.61,.43,8.61,.43Z"/><path class="cls-2" d="M204.62,445.02s-1.57-.97-4.14-2.57c-1-.63-2.16-1.36-3.44-2.17-.24-.15-.48-.3-.72-.46-1.81-1.14-3.83-2.41-5.98-3.77-1.79-1.13-3.67-2.33-5.58-3.54-.37-.23-.74-.47-1.1-.7-3.98-2.54-8.07-5.16-11.85-7.59-.06-.04-.13-.08-.19-.12-2.16-1.39-4.22-2.72-6.08-3.92-.62-.4-1.22-.79-1.81-1.17-1.91-1.23-3.82-2.47-5.73-3.7-.96-.62-1.74-1.13-2.28-1.47,0,0,0,0,0,0-6.53-4.21-17.13-1.56-32.74,1.72-8.07,1.68-15.36,2.11-20.63,2.11-5.27,0-8.51-.44-8.51-.44,0,0,2.17,1.38,5.56,3.53,1.07,.68,2.27,1.44,3.55,2.25,.69,.44,1.38,.87,2.06,1.31,1.41,.9,2.9,1.84,4.44,2.82,.96,.62,1.94,1.25,2.93,1.89,6.95,4.45,13.9,8.94,20.86,13.44,.35,.22,.69,.44,1.01,.65,.94,.61,1.81,1.17,2.54,1.64,2.76,1.78,4.88,3.15,5.96,3.85,6.53,4.23,17.17,1.56,32.76-1.76,8.06-1.72,15.36-2.2,20.61-2.21,5.25,0,8.51,.37,8.51,.37Z"/><path class="cls-2" d="M307.57,500.51h0s-.9-.38-2.45-1.03c-.55-.23-1.18-.5-1.89-.79-.89-.4-1.9-.86-3-1.36-2.15-.98-4.66-2.11-7.37-3.34-.06-.03-.12-.05-.17-.08-4.18-2.03-8.81-4.29-13.32-6.48-2.9-1.42-5.71-2.89-8.32-4.26-1.41-.74-2.76-1.45-4.03-2.1-.03-.02-.07-.04-.1-.05-2.49-1.3-4.68-2.41-6.45-3.4-.12-.06-.25-.13-.36-.2-1.42-.78-2.56-1.4-3.27-1.8-.1-.05-.21-.09-.31-.14-3.28-1.67-7.4-1.69-12.58-.78-5.31,.87-11.72,2.71-19.46,4.71-8.02,2.07-15.32,2.59-20.67,2.7-5,.1-8.2-.28-8.6-.34-.03,0-.05,0-.05,0,0,0,.45,.28,1.27,.78,.81,.51,2,1.23,3.47,2.1,2.95,1.76,7,4.19,11.46,6.85,1.31,.77,2.66,1.55,4.02,2.35,7.98,4.64,16.57,9.54,22.2,12.56,1,.55,1.93,1.06,2.71,1.49,1.05,.58,2.01,1.11,2.87,1.58,1.54,.84,2.74,1.49,3.5,1.87,.09,.05,.19,.08,.28,.12,7.07,3.42,17.47,.04,32.39-5.09,3.9-1.34,7.6-2.27,10.99-3.1,3.39-.82,6.42-1.39,8.96-1.79,1.27-.2,2.42-.35,3.43-.48,1.02-.14,1.9-.25,2.61-.33,1.42-.15,2.21-.19,2.23-.19Z"/></g></svg>