<?xml version="1.0" encoding="UTF-8"?><svg id="Art" xmlns="http://www.w3.org/2000/svg" viewBox="0 0 690 862.5"><defs><style>.cls-1{fill:#fff;}.cls-2{fill:#e02826;}</style></defs><g><path class="cls-1" d="M652.75,286.95l-6.14-1.11s-.83,.2-2.28,.64c-1.46,.47-3.52,1.07-6.03,2.19-5,2.16-11.64,5.57-18.15,10.53-.78,.6-1.55,1.19-2.3,1.77-.75,.61-1.48,1.2-2.2,1.79-1.42,1.15-2.78,2.26-4.1,3.32-2.6,2.1-4.97,3.94-7.17,5.44-4.41,3.02-8.16,4.61-11.9,4.51l3.66,.17,7.18,.64,7.18,.65,3.59,.32,1.8,.16,1.79,.24,14.28,1.94c1.19,.17,2.38,.3,3.57,.5l3.55,.64,7.09,1.28c3.97,.72,7.93,1.51,11.88,2.34-.37-.08-.73-.16-1.06-.24-1.58-.35-2.86-.66-3.76-.83-.9-.16-1.39-.25-1.39-.25,0,0,.78-.22,2.15-.65,1.37-.4,3.34-1.03,5.75-1.93,2.41-.9,5.27-2.07,8.42-3.56,3.14-1.47,6.6-3.35,10.13-5.35,4.26-2.46,8.15-4.7,11.72-6.55v-10.23c-12.29-3.28-24.74-6.04-37.25-8.38Z"/><path class="cls-1" d="M668.39,327.27c1.93,.46,3.86,.93,5.79,1.42-1.65-.45-3.28-.89-4.88-1.21-.31-.07-.6-.14-.91-.2Z"/><path class="cls-1" d="M690,333.02v-.04c-1.71-.51-3.53-1.03-5.43-1.51,1.81,.51,3.62,1.02,5.43,1.55Z"/><path class="cls-1" d="M621.89,282.23h-.03c.11,.01,.22,.03,.34,.04l-.3-.04Z"/><path class="cls-1" d="M619.96,281.97l-1.51-.14c.96,.09,1.92,.19,2.87,.32l-1.35-.18Z"/><path class="cls-1" d="M646.51,285.83l-1.45-.26-3.84-.69c-1.03-.18-2.08-.31-3.12-.45,1.27,.18,2.44,.35,3.46,.51,2.73,.49,4.53,.81,4.95,.89Z"/><path class="cls-1" d="M473,323.15l3.59-.56c-1.03,.16-2.76,.43-4.98,.78l1.39-.22Z"/><path class="cls-1" d="M588.92,315.88l2.31,.11c-.67-.03-1.49-.07-2.42-.11,.04,0,.08,0,.11,0Z"/><path class="cls-1" d="M517.58,281.15c-1.31,.11-2.84,.24-4.52,.39,2.57-.23,5.14-.44,7.71-.66-.83,.07-1.9,.16-3.18,.27Z"/><path class="cls-1" d="M332.37,360.64c3.03-1.15,6.06-2.32,9.09-3.48-2.31,.88-4.7,1.79-7.08,2.7-.68,.25-1.35,.51-2.01,.78Z"/><path class="cls-1" d="M354.07,352.48c-2.3,.74-5.08,1.8-8.1,2.96,4.52-1.7,9.05-3.36,13.63-4.86l1.29-.44c-1.12,.39-2.49,.86-4.05,1.39-.8,.27-1.75,.6-2.78,.95Z"/><path class="cls-1" d="M355.4,313.69c.52-.18,1.05-.36,1.6-.55-.63,.22-1.26,.44-1.9,.65l-7.31,2.51c-9.8,3.22-19.37,7.05-29,10.72l-14.25,5.95-3.56,1.5-3.51,1.58-7.02,3.17c-1.72,.78-3.43,1.58-5.14,2.37-.18,.2-.68,.78-1.4,1.74-.91,1.21-2.19,2.98-3.63,5.24-2.88,4.54-6.5,10.91-9.13,18.78-2.57,7.58-4.55,13.9-6.72,18.88-2.17,4.97-4.57,8.48-7.97,10.26-.28,.15-.64,.34-1.05,.56,16.63-8.78,33.22-17.18,50.07-24.84l6.66-3.01,3.33-1.5,.39-.16c-.12,.05-.25,.1-.36,.15-3,1.35-4.86,2.19-4.86,2.19,0,0,.53-.61,1.41-1.77,.89-1.14,2.11-2.91,3.58-5.02,2.92-4.27,6.65-10.46,9.91-18.09,3.19-7.27,5.94-13.41,8.8-18.15,1.43-2.36,2.9-4.37,4.47-5.95,1.6-1.53,3.3-2.64,5.2-3.3,.81-.28,2.1-.72,3.72-1.28,2.07-.71,4.7-1.61,7.68-2.64Z"/><path class="cls-1" d="M362.46,311.43l-3.7,1.13s0,0-.01,0c1.08-.33,2.2-.67,3.34-1.02,.52-.16,1.07-.33,1.6-.49l-1.23,.38Z"/><path class="cls-1" d="M247.59,401.21c-6.44,3.43-17.04,9.09-26.07,13.9l4.74-2.51,24.62-13.15c-.21,.11-.42,.22-.64,.34-.76,.41-1.68,.89-2.66,1.42Z"/><path class="cls-1" d="M244.72,361.72c-2.92,1.52-5.83,3.05-8.72,4.59,1.88-.99,4.23-2.22,6.9-3.62,.59-.31,1.2-.63,1.83-.96Z"/><path class="cls-1" d="M218.02,397.66c4.74-15.2,7.5-25.74,14.39-29.44l-23.21,12.4-13.14,6.94-13.72,7.46c-3.49,1.98-6.94,4.02-10.38,6.08,.2-.11,.4-.23,.58-.34,2.74-1.61,4.41-2.59,4.41-2.59,0,0-2.02,2.77-4.54,7.52-2.47,4.82-5.36,11.69-7.17,19.7-1.67,7.86-2.83,14.39-4.34,19.51-1.45,5.16-3.26,8.89-6.29,11.07,14.73-10.63,29.9-20.51,45.56-29.39l12.47-6.78c-.16,.09-.33,.18-.49,.26-.83,.45-1.61,.88-2.32,1.26-2.84,1.55-4.61,2.51-4.61,2.51,0,0,1.86-2.57,4.35-7.13,2.6-4.59,5.97-11.17,8.43-19.03Z"/><path class="cls-1" d="M437.2,292.57l-7.55,1.45-3.78,.73-3.76,.86-15.03,3.44c-1.89,.4-3.78,.86-5.65,1.34-.35,.28-2.89,2.37-6.33,6-3.7,3.93-8.45,9.53-12.5,16.72-3.89,7.04-6.91,12.98-9.87,17.44-1.48,2.24-2.95,4.06-4.48,5.55-1.52,1.5-3.12,2.58-4.9,3.19l3.13-1.08c1.15-.39,2.29-.81,3.45-1.17l3.48-1.06,13.93-4.26c2.31-.75,4.68-1.31,7.02-1.95l7.05-1.88c4.7-1.24,9.37-2.58,14.14-3.59l5.32-1.22s2.55-2,6.2-5.72c.92-.93,1.91-1.98,2.94-3.12,1.04-1.18,2.13-2.42,3.26-3.7,2.26-2.62,4.64-5.63,6.97-9.03,4.49-6.56,8.31-12.18,11.97-16.34,3.68-4.04,7.2-6.59,11.13-7.22l-11.03,1.73c-5.04,.92-10.07,1.92-15.11,2.88Z"/><path class="cls-1" d="M646.57,285.84h.03s0,0,0,0c0,0-.02,0-.03,0Z"/><path class="cls-1" d="M505.39,282.28c-2.52,.27-5.03,.57-7.52,.92l-4.5,.55c4.04-.49,8.08-.99,11.8-1.44,.07-.01,.15-.02,.22-.03Z"/><path class="cls-1" d="M484.64,284.82l-1.97,.24-.65,.08s.05,0,.07,0c.83-.1,1.69-.21,2.55-.31Z"/><path class="cls-1" d="M478.51,285.59c.5-.07,1.02-.14,1.53-.2l-1.18,.15-3.79,.59-7.58,1.19-.76,.12c.16-.03,.32-.05,.49-.08,2.15-.34,4.87-.76,7.97-1.25,1.06-.17,2.17-.34,3.33-.52Z"/><path class="cls-1" d="M453.81,326.29c-4.82,.93-9.97,1.92-14.74,2.83l5.06-.97,14.16-2.7c-.28,.05-.55,.09-.82,.14-1.19,.23-2.41,.46-3.66,.7Z"/><path class="cls-1" d="M598.51,280.04c4.34,.39,9.53,.85,14.87,1.33,.98,.1,1.98,.19,2.97,.27l-2.22-.2-7.77-.71-7.77-.69-7.78-.37c-20.76-1.3-41.53-.67-62.19,.54-1.99,.18-3.99,.34-5.98,.51-.07,.04-3.05,1.66-7.31,4.82-2.15,1.61-4.64,3.56-7.21,5.99-2.56,2.47-5.23,5.33-7.82,8.57-9.97,12.54-16.07,21.17-23.55,22.46l3.49-.55,3.62-.57,3.65-.45,14.59-1.79c9.77-1.36,19.35-1.95,29-2.82,9.62-.56,19.26-.99,28.89-1.13-1.94,0-3.86,0-5.71,.04-9.86,.41-17.96,.75-17.96,.75,0,0,2.8-1.49,7.03-4.48,2.11-1.5,4.59-3.37,7.26-5.63,1.33-1.13,2.72-2.35,4.13-3.67,1.41-1.29,2.85-2.62,4.3-4.07,5.6-5.58,10.43-10.37,14.85-13.76,1.11-.85,2.19-1.61,3.25-2.26,1.06-.62,2.11-1.14,3.14-1.55,2.06-.83,4.08-1.24,6.09-1.14,.86,.04,2.24,.1,3.96,.18,2.21,.1,5,.23,8.18,.38Z"/><path class="cls-1" d="M574.36,315.29c1.68,.03,3.35,.09,5.03,.15-.85-.04-1.73-.08-2.65-.12-.77-.02-1.57-.02-2.38-.03Z"/><path class="cls-1" d="M377.24,306.91l-1.83,.56c2-.61,3.98-1.2,5.92-1.74-1.37,.36-2.74,.74-4.09,1.18Z"/><path class="cls-1" d="M235.73,366.45l-.27,.14c.11-.06,.2-.11,.32-.17-.02,0-.03,.02-.05,.03Z"/><path class="cls-1" d="M429.79,331.04l1.09-.25c-1.03,.23-2,.46-2.91,.67l1.81-.42Z"/><path class="cls-1" d="M436.94,329.53l1.63-.31c-1.35,.24-2.66,.5-3.92,.76l2.28-.44Z"/><path class="cls-1" d="M392.14,302.85l-7.46,1.99s-.05,.01-.07,.02c6.65-1.77,12.26-3.27,15.03-4.01-2.5,.65-4.99,1.34-7.49,2Z"/><path class="cls-1" d="M151.8,458.01c.69-.51,1.39-1,2.08-1.5-.43,.3-.93,.66-1.52,1.08-.18,.13-.37,.28-.56,.42Z"/><path class="cls-1" d="M129.82,474.91c.16-.12,.31-.25,.47-.37l-.25,.19c-.07,.06-.15,.12-.22,.18Z"/><path class="cls-1" d="M31.02,570.44c-2.22,2.47-3.56,4.04-3.56,4.04,0,0,.22-.78,.55-2.22,.34-1.42,.77-3.48,1.19-6.07,.84-5.15,1.53-12.43,1.27-20.64-.59-15.45-.99-26.24,3.94-32.12C22.61,525.62,11.15,538.12,0,550.87v56.4c7.8-9.68,15.74-19.24,23.86-28.63,7.17-8.29,14.47-16.46,21.9-24.5-2.08,2.25-4.16,4.51-6.14,6.66-3.34,3.75-6.39,7.16-8.6,9.63Z"/><path class="cls-1" d="M50.19,549.34c-1.35,1.46-2.73,2.96-4.12,4.47,2.46-2.66,4.94-5.31,7.43-7.94-1.07,1.12-2.18,2.28-3.31,3.47Z"/><path class="cls-1" d="M45.77,554.15c.1-.11,.21-.22,.31-.34-.1,.11-.21,.23-.31,.34Z"/><path class="cls-1" d="M59.46,539.63c-1.67,1.75-3.7,3.88-5.93,6.22,3.35-3.53,6.72-7.04,10.12-10.51-.64,.65-1.36,1.37-2.14,2.16-.61,.6-1.3,1.35-2.06,2.14Z"/><path class="cls-1" d="M143.93,419.15c-.75,.52-1.48,1.03-2.19,1.53,.73-.51,1.46-1.02,2.19-1.53Z"/><path class="cls-1" d="M136.48,424.4c1.62-1.15,3.39-2.42,5.26-3.73-2.93,2.04-5.85,4.1-8.74,6.19,1.08-.76,2.25-1.58,3.48-2.47Z"/><path class="cls-1" d="M77.83,471.58c-.09,.2-1.42,3.24-2.85,8.2-1.5,5.11-2.94,12.43-3.25,20.63-.48,15.98,0,26.69-5.32,32.14-.53,.54-1.37,1.39-2.44,2.47,13.64-13.93,27.72-27.38,42.28-40.24,1.33-1.18,2.68-2.34,4.02-3.51,.18-.4,1.4-3.26,2.78-7.91,1.49-5.02,3.31-11.96,4.17-20.21,.89-7.91,1.7-14.59,3.01-19.97,1.33-5.37,3.32-9.27,6.51-11.68,.69-.51,1.78-1.33,3.14-2.35,.23-.17,.49-.36,.73-.54-16.78,12.26-32.86,25.35-48.34,38.99-1.49,1.32-2.95,2.66-4.43,3.99Z"/><path class="cls-1" d="M146.6,417.32c.68-.46,1.37-.92,2.07-1.38,2.17-1.45,4.37-2.92,6.53-4.37-2.89,1.89-5.75,3.81-8.6,5.74Z"/><path class="cls-1" d="M140.16,466.75c.63-.48,1.26-.96,1.89-1.44-.08,.06-.15,.12-.23,.18-.54,.4-1.1,.83-1.66,1.26Z"/><path class="cls-1" d="M168.99,402.88c-3.34,2.04-6.65,4.12-9.94,6.23,.96-.6,1.92-1.19,2.84-1.78,2.59-1.62,4.99-3.15,7.1-4.45Z"/></g><g><path class="cls-2" d="M678.28,312.12c-3.53,1.99-6.99,3.88-10.13,5.35-3.15,1.49-6.01,2.66-8.42,3.56-2.41,.9-4.38,1.53-5.75,1.93-1.38,.43-2.15,.65-2.15,.65,0,0,.5,.09,1.39,.25,.89,.17,2.17,.48,3.76,.83,.34,.08,.7,.16,1.06,.24,2.83,.64,6.43,1.44,10.35,2.32,.3,.07,.6,.13,.91,.2,1.61,.32,3.24,.77,4.88,1.21,.82,.22,1.65,.45,2.48,.67,2.49,.67,4.99,1.34,7.41,1.99,.17,.04,.34,.09,.51,.13,1.89,.48,3.71,1,5.43,1.51v-27.42c-3.57,1.85-7.46,4.09-11.72,6.55Z"/><path class="cls-2" d="M384.6,304.86s-.02,0-.03,0c-1.06,.26-2.15,.56-3.24,.87-1.94,.54-3.92,1.13-5.92,1.74-1.96,.6-3.93,1.2-5.89,1.8-1.98,.61-3.93,1.2-5.83,1.78-.53,.16-1.08,.33-1.6,.49-1.14,.35-2.26,.69-3.34,1.02-.05,.01-.09,.03-.14,.04-.55,.17-1.09,.35-1.61,.54-.54,.19-1.08,.38-1.6,.55-2.99,1.03-5.61,1.93-7.68,2.64-1.62,.56-2.91,1-3.72,1.28-1.89,.65-3.6,1.77-5.2,3.3-1.58,1.58-3.04,3.59-4.47,5.95-2.86,4.74-5.61,10.88-8.8,18.15-3.26,7.64-6.99,13.82-9.91,18.09-1.47,2.11-2.69,3.88-3.58,5.02-.88,1.16-1.41,1.77-1.41,1.77,0,0,1.86-.84,4.86-2.19,.12-.05,.25-.1,.36-.15,3-1.25,7.01-2.93,11.42-4.78,.89-.36,1.78-.74,2.69-1.12,.58-.25,1.17-.49,1.77-.74,.21-.09,.43-.18,.64-.26,.67-.27,1.34-.53,2.01-.78,2.38-.91,4.77-1.82,7.08-2.7,.05-.02,.1-.04,.16-.06,1.5-.56,2.95-1.12,4.35-1.66,3.03-1.16,5.8-2.21,8.1-2.96,1.03-.35,1.98-.68,2.78-.95,1.56-.53,2.92-1,4.05-1.39,1.05-.36,1.88-.65,2.45-.84,0,0,0,0,0,0,1.78-.61,3.38-1.69,4.9-3.19,1.53-1.49,3-3.31,4.48-5.55,2.96-4.46,5.99-10.4,9.87-17.44,4.05-7.19,8.8-12.79,12.5-16.72,3.44-3.63,5.99-5.72,6.33-6,.03-.02,.04-.04,.04-.04,0,0-.67,.18-1.85,.49-2.77,.74-8.38,2.23-15.03,4.01Z"/><path class="cls-2" d="M280.84,343.66c-1.16,.56-2.52,1.21-4.01,1.93-.25,.12-.5,.24-.75,.36-1.94,.93-4.09,1.97-6.38,3.07-4.22,2.09-8.86,4.42-13.38,6.72-.23,.12-.46,.23-.69,.35-3.87,1.97-7.61,3.9-10.91,5.63-.62,.33-1.24,.65-1.83,.96-2.67,1.4-5.02,2.64-6.9,3.62-.05,.03-.11,.06-.16,.08-.02,.01-.04,.02-.06,.03-.11,.06-.21,.11-.32,.17-1.29,.69-2.34,1.25-3.01,1.6-.01,0-.02,.02-.04,.02-6.9,3.7-9.66,14.24-14.39,29.44-2.46,7.86-5.82,14.44-8.43,19.03-2.49,4.56-4.35,7.13-4.35,7.13,0,0,1.77-.96,4.61-2.51,.71-.39,1.49-.81,2.32-1.26,.16-.08,.33-.17,.49-.26,.74-.39,1.51-.8,2.32-1.23,1.99-1.05,4.17-2.2,6.45-3.41,.03-.01,.05-.03,.08-.04,9.02-4.81,19.63-10.47,26.07-13.9,.98-.52,1.89-1.01,2.66-1.42,.22-.12,.43-.23,.64-.34,1.86-.99,3.42-1.81,4.53-2.4,.41-.22,.77-.41,1.05-.56,3.4-1.78,5.8-5.29,7.97-10.26,2.17-4.99,4.15-11.3,6.72-18.88,2.63-7.88,6.24-14.24,9.13-18.78,1.45-2.26,2.72-4.03,3.63-5.24,.72-.96,1.22-1.54,1.4-1.74,.05-.05,.08-.09,.08-.09,0,0-.44,.2-1.23,.56-.78,.38-1.92,.92-3.33,1.6Z"/><path class="cls-2" d="M517.58,281.15c-1.31,.11-2.84,.24-4.52,.39-.34,.03-.68,.06-1.04,.09-2.04,.17-4.3,.35-6.62,.66-.07,.01-.15,.02-.22,.03-3.72,.46-7.76,.95-11.8,1.44-1.22,.15-2.43,.3-3.64,.45-1.73,.21-3.42,.42-5.09,.62-.86,.1-1.72,.21-2.55,.31-.02,0-.05,0-.07,0l-1.97,.24c-.52,.06-1.03,.13-1.53,.2-1.15,.18-2.26,.35-3.33,.52-3.1,.48-5.82,.91-7.97,1.25-.17,.03-.32,.05-.49,.08-1.44,.23-2.61,.41-3.37,.53,0,0,0,0-.01,0-3.92,.62-7.45,3.18-11.13,7.22-3.66,4.16-7.48,9.78-11.97,16.34-2.33,3.4-4.71,6.41-6.97,9.03-1.13,1.28-2.23,2.52-3.26,3.7-1.04,1.15-2.03,2.19-2.94,3.12-3.65,3.71-6.17,5.7-6.2,5.72h0s1.99-.45,5.2-1.19c.59-.13,1.24-.28,1.91-.44,.91-.21,1.88-.43,2.91-.67,1.19-.27,2.45-.55,3.78-.82,1.26-.26,2.57-.52,3.92-.76l.49-.09c4.77-.92,9.91-1.9,14.74-2.83,1.25-.24,2.47-.48,3.66-.7,.28-.05,.55-.09,.82-.14,.28-.05,.56-.1,.83-.14,.46-.07,.9-.14,1.34-.21,.16-.02,.33-.05,.48-.08,2.24-.35,4.29-.67,6.05-.95,1.08-.17,2.08-.33,2.92-.46,.59-.09,1.15-.18,1.69-.27,2.22-.35,3.95-.62,4.98-.78l.17-.03c7.48-1.29,13.58-9.92,23.55-22.46,2.58-3.23,5.26-6.1,7.82-8.57,2.57-2.43,5.06-4.38,7.21-5.99,4.26-3.16,7.24-4.78,7.31-4.82,0,0,0,0,0,0,0,0-.69,.06-1.88,.16-.83,.07-1.9,.16-3.18,.27Z"/><path class="cls-2" d="M646.51,285.83c-.42-.07-2.21-.4-4.95-.89-1.03-.17-2.2-.34-3.46-.51-1.58-.22-3.32-.45-5.18-.7-.82-.11-1.67-.23-2.53-.34-.42-.06-.84-.11-1.27-.17-2.22-.3-4.55-.62-6.92-.94-.11-.02-.22-.03-.34-.05-.15-.02-.3-.04-.45-.06-.03,0-.07,0-.1-.01-.95-.13-1.91-.23-2.87-.32-.7-.07-1.39-.13-2.09-.19-.99-.09-1.98-.17-2.97-.27-5.34-.48-10.53-.94-14.87-1.33-3.18-.15-5.97-.28-8.18-.38-1.72-.08-3.09-.14-3.96-.18-2.02-.09-4.03,.31-6.09,1.14-1.03,.42-2.08,.94-3.14,1.55-1.06,.65-2.14,1.42-3.25,2.26-4.42,3.39-9.25,8.17-14.85,13.76-1.45,1.45-2.89,2.77-4.3,4.07-1.41,1.32-2.8,2.54-4.13,3.67-2.67,2.26-5.14,4.13-7.26,5.63-4.22,3-7.03,4.48-7.03,4.48,0,0,8.1-.34,17.96-.75,1.85-.03,3.78-.04,5.71-.04,3.21,0,6.46,.03,9.59,.02,1.64,0,3.24,0,4.77,0,.81,0,1.61,0,2.38,.03,.92,.04,1.8,.08,2.65,.12,1.2,.06,2.34,.11,3.37,.16,1.08,.05,2.07,.1,2.91,.14,1.15,.05,2.21,.1,3.14,.15,.94,.04,1.75,.08,2.42,.11,.49,.02,.91,.04,1.24,.06,0,0,0,0,0,0,3.74,.1,7.49-1.49,11.9-4.51,2.2-1.51,4.57-3.35,7.17-5.44,1.31-1.07,2.68-2.17,4.1-3.32,.72-.58,1.45-1.18,2.2-1.79,.75-.58,1.52-1.17,2.3-1.77,6.51-4.96,13.15-8.37,18.15-10.53,2.51-1.12,4.57-1.72,6.03-2.19,1.45-.44,2.28-.64,2.28-.64,0,0-.02,0-.03,0h-.06Z"/><path class="cls-2" d="M69.99,478.64c-1.52,1.43-3.21,3.01-4.99,4.68-1.58,1.48-3.24,3.04-4.92,4.63-.19,.18-.37,.35-.55,.52-1.94,1.83-3.9,3.71-5.8,5.6-1.68,1.65-3.35,3.26-4.94,4.82-.07,.06-.13,.13-.2,.19-1.91,1.86-3.71,3.64-5.3,5.29-1.94,1.96-3.66,3.7-5.09,5.15-.16,.16-.33,.34-.49,.5-.03,.03-.06,.06-.08,.08-1.19,1.2-2.14,2.17-2.73,2.77-.17,.18-.32,.38-.48,.57-4.93,5.88-4.52,16.67-3.94,32.12,.26,8.2-.43,15.48-1.27,20.64-.42,2.58-.85,4.65-1.19,6.07-.32,1.43-.55,2.22-.55,2.22,0,0,1.34-1.57,3.56-4.04,2.21-2.47,5.26-5.89,8.6-9.63,3.4-3.69,7.11-7.71,10.57-11.46,1.14-1.19,2.25-2.35,3.31-3.47,0,0,.02-.02,.03-.03,2.23-2.33,4.26-4.47,5.93-6.22,.76-.79,1.45-1.54,2.06-2.14,.78-.79,1.49-1.51,2.14-2.16,.1-.1,.2-.2,.3-.31,1.07-1.08,1.91-1.93,2.44-2.47,5.33-5.45,4.84-16.15,5.32-32.14,.32-8.21,1.75-15.52,3.25-20.63,1.44-4.97,2.77-8.01,2.85-8.2,0,0,0-.02,0-.02,0,0-1.42,1.28-3.74,3.38-1.16,1.05-2.55,2.3-4.1,3.7Z"/><path class="cls-2" d="M171.98,401.09c-.91,.53-1.91,1.13-2.99,1.79-2.11,1.3-4.51,2.83-7.1,4.45-.92,.59-1.87,1.18-2.84,1.78-1.08,.69-2.17,1.38-3.25,2.08-.07,.05-.14,.09-.21,.14-.08,.05-.16,.1-.23,.15-.05,.03-.09,.06-.14,.09-2.16,1.45-4.36,2.92-6.53,4.37-.7,.46-1.39,.92-2.07,1.38-.89,.61-1.78,1.21-2.67,1.82-2.68,1.86-5.2,3.66-7.45,5.26-1.23,.89-2.4,1.7-3.48,2.47-.87,.62-1.67,1.19-2.4,1.73-.24,.18-.51,.37-.73,.54-1.37,1.02-2.46,1.84-3.14,2.35-3.19,2.42-5.18,6.31-6.51,11.68-1.32,5.38-2.12,12.07-3.01,19.97-.86,8.26-2.67,15.2-4.17,20.21-1.38,4.64-2.61,7.5-2.78,7.91-.01,.03-.02,.05-.02,.05,0,0,1.55-1.34,4.04-3.49,.35-.31,.72-.63,1.11-.97,.4-.34,.81-.7,1.25-1.06,.94-.8,1.89-1.58,2.83-2.37,1.45-1.21,3-2.48,4.63-3.83,.8-.66,1.62-1.34,2.44-2.02,1.1-.89,2.19-1.8,3.29-2.68,.07-.06,.15-.12,.22-.18l.25-.19c1.97-1.55,3.94-3.1,5.84-4.6,1.39-1.09,2.73-2.17,4.03-3.18,.56-.44,1.11-.86,1.66-1.26,.08-.06,.15-.12,.23-.18,1.71-1.28,3.28-2.45,4.63-3.47,.87-.65,1.67-1.25,2.35-1.76,1.03-.77,1.96-1.46,2.77-2.07,.19-.14,.38-.29,.56-.42,.59-.42,1.1-.78,1.52-1.08,.26-.18,.49-.35,.68-.49,.03-.02,.05-.04,.07-.06,3.02-2.18,4.84-5.91,6.29-11.07,1.5-5.13,2.67-11.65,4.34-19.51,1.81-8.01,4.71-14.88,7.17-19.7,2.52-4.75,4.54-7.52,4.54-7.52,0,0-1.67,.98-4.41,2.59-.19,.11-.39,.22-.58,.34Z"/></g></svg>